G04 (created by PCBNEW (2013-07-07 BZR 4022)-stable) date 11/26/2014 18:45:40*
%MOIN*%
G04 Gerber Fmt 3.4, Leading zero omitted, Abs format*
%FSLAX34Y34*%
G01*
G70*
G90*
G04 APERTURE LIST*
%ADD10C,0.00590551*%
%ADD11C,0.00629921*%
G04 APERTURE END LIST*
G54D10*
X4000Y-4000D02*
X112930Y-4000D01*
X112930Y-78680D01*
X4000Y-78680D01*
X4000Y-4000D01*
X4700Y-4700D02*
X112230Y-4700D01*
X112230Y-77980D01*
X4700Y-77980D01*
X4700Y-4700D01*
X25780Y-4000D02*
X25780Y-4700D01*
X15032Y-4552D02*
X14747Y-4552D01*
X14890Y-4552D02*
X14890Y-4052D01*
X14842Y-4123D01*
X14794Y-4171D01*
X14747Y-4195D01*
X25780Y-78680D02*
X25780Y-77980D01*
X15032Y-78532D02*
X14747Y-78532D01*
X14890Y-78532D02*
X14890Y-78032D01*
X14842Y-78103D01*
X14794Y-78151D01*
X14747Y-78175D01*
X47560Y-4000D02*
X47560Y-4700D01*
X36527Y-4100D02*
X36550Y-4076D01*
X36598Y-4052D01*
X36717Y-4052D01*
X36765Y-4076D01*
X36789Y-4100D01*
X36812Y-4147D01*
X36812Y-4195D01*
X36789Y-4266D01*
X36503Y-4552D01*
X36812Y-4552D01*
X47560Y-78680D02*
X47560Y-77980D01*
X36527Y-78080D02*
X36550Y-78056D01*
X36598Y-78032D01*
X36717Y-78032D01*
X36765Y-78056D01*
X36789Y-78080D01*
X36812Y-78127D01*
X36812Y-78175D01*
X36789Y-78246D01*
X36503Y-78532D01*
X36812Y-78532D01*
X69340Y-4000D02*
X69340Y-4700D01*
X58283Y-4052D02*
X58592Y-4052D01*
X58426Y-4242D01*
X58497Y-4242D01*
X58545Y-4266D01*
X58569Y-4290D01*
X58592Y-4338D01*
X58592Y-4457D01*
X58569Y-4504D01*
X58545Y-4528D01*
X58497Y-4552D01*
X58354Y-4552D01*
X58307Y-4528D01*
X58283Y-4504D01*
X69340Y-78680D02*
X69340Y-77980D01*
X58283Y-78032D02*
X58592Y-78032D01*
X58426Y-78222D01*
X58497Y-78222D01*
X58545Y-78246D01*
X58569Y-78270D01*
X58592Y-78318D01*
X58592Y-78437D01*
X58569Y-78484D01*
X58545Y-78508D01*
X58497Y-78532D01*
X58354Y-78532D01*
X58307Y-78508D01*
X58283Y-78484D01*
X91120Y-4000D02*
X91120Y-4700D01*
X80325Y-4219D02*
X80325Y-4552D01*
X80206Y-4028D02*
X80087Y-4385D01*
X80396Y-4385D01*
X91120Y-78680D02*
X91120Y-77980D01*
X80325Y-78199D02*
X80325Y-78532D01*
X80206Y-78008D02*
X80087Y-78365D01*
X80396Y-78365D01*
X102129Y-4052D02*
X101890Y-4052D01*
X101867Y-4290D01*
X101890Y-4266D01*
X101938Y-4242D01*
X102057Y-4242D01*
X102105Y-4266D01*
X102129Y-4290D01*
X102152Y-4338D01*
X102152Y-4457D01*
X102129Y-4504D01*
X102105Y-4528D01*
X102057Y-4552D01*
X101938Y-4552D01*
X101890Y-4528D01*
X101867Y-4504D01*
X102129Y-78032D02*
X101890Y-78032D01*
X101867Y-78270D01*
X101890Y-78246D01*
X101938Y-78222D01*
X102057Y-78222D01*
X102105Y-78246D01*
X102129Y-78270D01*
X102152Y-78318D01*
X102152Y-78437D01*
X102129Y-78484D01*
X102105Y-78508D01*
X102057Y-78532D01*
X101938Y-78532D01*
X101890Y-78508D01*
X101867Y-78484D01*
X4000Y-28890D02*
X4700Y-28890D01*
X4230Y-16509D02*
X4469Y-16509D01*
X4183Y-16652D02*
X4350Y-16152D01*
X4516Y-16652D01*
X112930Y-28890D02*
X112230Y-28890D01*
X112460Y-16509D02*
X112699Y-16509D01*
X112413Y-16652D02*
X112580Y-16152D01*
X112746Y-16652D01*
X4000Y-53780D02*
X4700Y-53780D01*
X4385Y-41280D02*
X4457Y-41304D01*
X4480Y-41328D01*
X4504Y-41375D01*
X4504Y-41447D01*
X4480Y-41494D01*
X4457Y-41518D01*
X4409Y-41542D01*
X4219Y-41542D01*
X4219Y-41042D01*
X4385Y-41042D01*
X4433Y-41066D01*
X4457Y-41090D01*
X4480Y-41137D01*
X4480Y-41185D01*
X4457Y-41232D01*
X4433Y-41256D01*
X4385Y-41280D01*
X4219Y-41280D01*
X112930Y-53780D02*
X112230Y-53780D01*
X112615Y-41280D02*
X112687Y-41304D01*
X112710Y-41328D01*
X112734Y-41375D01*
X112734Y-41447D01*
X112710Y-41494D01*
X112687Y-41518D01*
X112639Y-41542D01*
X112449Y-41542D01*
X112449Y-41042D01*
X112615Y-41042D01*
X112663Y-41066D01*
X112687Y-41090D01*
X112710Y-41137D01*
X112710Y-41185D01*
X112687Y-41232D01*
X112663Y-41256D01*
X112615Y-41280D01*
X112449Y-41280D01*
X4504Y-66384D02*
X4480Y-66408D01*
X4409Y-66432D01*
X4361Y-66432D01*
X4290Y-66408D01*
X4242Y-66360D01*
X4219Y-66313D01*
X4195Y-66218D01*
X4195Y-66146D01*
X4219Y-66051D01*
X4242Y-66003D01*
X4290Y-65956D01*
X4361Y-65932D01*
X4409Y-65932D01*
X4480Y-65956D01*
X4504Y-65980D01*
X112734Y-66384D02*
X112710Y-66408D01*
X112639Y-66432D01*
X112591Y-66432D01*
X112520Y-66408D01*
X112472Y-66360D01*
X112449Y-66313D01*
X112425Y-66218D01*
X112425Y-66146D01*
X112449Y-66051D01*
X112472Y-66003D01*
X112520Y-65956D01*
X112591Y-65932D01*
X112639Y-65932D01*
X112710Y-65956D01*
X112734Y-65980D01*
X79380Y-76422D02*
X79455Y-75822D01*
X79597Y-75822D01*
X79680Y-75851D01*
X79730Y-75908D01*
X79751Y-75965D01*
X79765Y-76080D01*
X79755Y-76165D01*
X79712Y-76280D01*
X79676Y-76337D01*
X79612Y-76394D01*
X79522Y-76422D01*
X79380Y-76422D01*
X80237Y-76422D02*
X80276Y-76108D01*
X80255Y-76051D01*
X80201Y-76022D01*
X80087Y-76022D01*
X80026Y-76051D01*
X80240Y-76394D02*
X80180Y-76422D01*
X80037Y-76422D01*
X79983Y-76394D01*
X79962Y-76337D01*
X79969Y-76280D01*
X80005Y-76222D01*
X80065Y-76194D01*
X80208Y-76194D01*
X80269Y-76165D01*
X80487Y-76022D02*
X80715Y-76022D01*
X80597Y-75822D02*
X80533Y-76337D01*
X80555Y-76394D01*
X80608Y-76422D01*
X80665Y-76422D01*
X81097Y-76394D02*
X81037Y-76422D01*
X80922Y-76422D01*
X80869Y-76394D01*
X80847Y-76337D01*
X80876Y-76108D01*
X80912Y-76051D01*
X80972Y-76022D01*
X81087Y-76022D01*
X81140Y-76051D01*
X81162Y-76108D01*
X81155Y-76165D01*
X80862Y-76222D01*
X81387Y-76365D02*
X81412Y-76394D01*
X81380Y-76422D01*
X81355Y-76394D01*
X81387Y-76365D01*
X81380Y-76422D01*
X81426Y-76051D02*
X81451Y-76080D01*
X81419Y-76108D01*
X81394Y-76080D01*
X81426Y-76051D01*
X81419Y-76108D01*
X82162Y-75880D02*
X82194Y-75851D01*
X82255Y-75822D01*
X82397Y-75822D01*
X82451Y-75851D01*
X82476Y-75880D01*
X82497Y-75937D01*
X82490Y-75994D01*
X82451Y-76080D01*
X82065Y-76422D01*
X82437Y-76422D01*
X83026Y-75822D02*
X82912Y-75822D01*
X82851Y-75851D01*
X82819Y-75880D01*
X82751Y-75965D01*
X82708Y-76080D01*
X82680Y-76308D01*
X82701Y-76365D01*
X82726Y-76394D01*
X82780Y-76422D01*
X82894Y-76422D01*
X82955Y-76394D01*
X82987Y-76365D01*
X83022Y-76308D01*
X83040Y-76165D01*
X83019Y-76108D01*
X82994Y-76080D01*
X82940Y-76051D01*
X82826Y-76051D01*
X82765Y-76080D01*
X82733Y-76108D01*
X82697Y-76165D01*
X83772Y-76022D02*
X83722Y-76422D01*
X83765Y-76080D02*
X83797Y-76051D01*
X83858Y-76022D01*
X83944Y-76022D01*
X83997Y-76051D01*
X84019Y-76108D01*
X83980Y-76422D01*
X84351Y-76422D02*
X84297Y-76394D01*
X84272Y-76365D01*
X84251Y-76308D01*
X84272Y-76137D01*
X84308Y-76080D01*
X84340Y-76051D01*
X84401Y-76022D01*
X84487Y-76022D01*
X84540Y-76051D01*
X84565Y-76080D01*
X84587Y-76137D01*
X84565Y-76308D01*
X84530Y-76365D01*
X84497Y-76394D01*
X84437Y-76422D01*
X84351Y-76422D01*
X84801Y-76022D02*
X84894Y-76422D01*
X85087Y-76022D01*
X85762Y-75880D02*
X85794Y-75851D01*
X85855Y-75822D01*
X85997Y-75822D01*
X86051Y-75851D01*
X86076Y-75880D01*
X86097Y-75937D01*
X86090Y-75994D01*
X86051Y-76080D01*
X85665Y-76422D01*
X86037Y-76422D01*
X86483Y-75822D02*
X86540Y-75822D01*
X86594Y-75851D01*
X86619Y-75880D01*
X86640Y-75937D01*
X86655Y-76051D01*
X86637Y-76194D01*
X86594Y-76308D01*
X86558Y-76365D01*
X86526Y-76394D01*
X86465Y-76422D01*
X86408Y-76422D01*
X86355Y-76394D01*
X86330Y-76365D01*
X86308Y-76308D01*
X86294Y-76194D01*
X86312Y-76051D01*
X86355Y-75937D01*
X86390Y-75880D01*
X86422Y-75851D01*
X86483Y-75822D01*
X87180Y-76422D02*
X86837Y-76422D01*
X87008Y-76422D02*
X87083Y-75822D01*
X87015Y-75908D01*
X86951Y-75965D01*
X86890Y-75994D01*
X87744Y-76022D02*
X87694Y-76422D01*
X87630Y-75794D02*
X87433Y-76222D01*
X87805Y-76222D01*
X70972Y-77622D02*
X70972Y-77022D01*
X71315Y-77622D02*
X71058Y-77280D01*
X71315Y-77022D02*
X70972Y-77365D01*
X71572Y-77622D02*
X71572Y-77222D01*
X71572Y-77022D02*
X71544Y-77051D01*
X71572Y-77080D01*
X71601Y-77051D01*
X71572Y-77022D01*
X71572Y-77080D01*
X72201Y-77565D02*
X72172Y-77594D01*
X72087Y-77622D01*
X72030Y-77622D01*
X71944Y-77594D01*
X71887Y-77537D01*
X71858Y-77480D01*
X71830Y-77365D01*
X71830Y-77280D01*
X71858Y-77165D01*
X71887Y-77108D01*
X71944Y-77051D01*
X72030Y-77022D01*
X72087Y-77022D01*
X72172Y-77051D01*
X72201Y-77080D01*
X72715Y-77622D02*
X72715Y-77308D01*
X72687Y-77251D01*
X72630Y-77222D01*
X72515Y-77222D01*
X72458Y-77251D01*
X72715Y-77594D02*
X72658Y-77622D01*
X72515Y-77622D01*
X72458Y-77594D01*
X72430Y-77537D01*
X72430Y-77480D01*
X72458Y-77422D01*
X72515Y-77394D01*
X72658Y-77394D01*
X72715Y-77365D01*
X73258Y-77622D02*
X73258Y-77022D01*
X73258Y-77594D02*
X73201Y-77622D01*
X73087Y-77622D01*
X73030Y-77594D01*
X73001Y-77565D01*
X72972Y-77508D01*
X72972Y-77337D01*
X73001Y-77280D01*
X73030Y-77251D01*
X73087Y-77222D01*
X73201Y-77222D01*
X73258Y-77251D01*
X74001Y-77308D02*
X74201Y-77308D01*
X74287Y-77622D02*
X74001Y-77622D01*
X74001Y-77022D01*
X74287Y-77022D01*
X74544Y-77565D02*
X74572Y-77594D01*
X74544Y-77622D01*
X74515Y-77594D01*
X74544Y-77565D01*
X74544Y-77622D01*
X74829Y-77622D02*
X74829Y-77022D01*
X74972Y-77022D01*
X75058Y-77051D01*
X75115Y-77108D01*
X75144Y-77165D01*
X75172Y-77280D01*
X75172Y-77365D01*
X75144Y-77480D01*
X75115Y-77537D01*
X75058Y-77594D01*
X74972Y-77622D01*
X74829Y-77622D01*
X75429Y-77565D02*
X75458Y-77594D01*
X75429Y-77622D01*
X75401Y-77594D01*
X75429Y-77565D01*
X75429Y-77622D01*
X75687Y-77451D02*
X75972Y-77451D01*
X75629Y-77622D02*
X75829Y-77022D01*
X76029Y-77622D01*
X76229Y-77565D02*
X76258Y-77594D01*
X76229Y-77622D01*
X76201Y-77594D01*
X76229Y-77565D01*
X76229Y-77622D01*
X104522Y-76422D02*
X104358Y-76137D01*
X104180Y-76422D02*
X104255Y-75822D01*
X104483Y-75822D01*
X104537Y-75851D01*
X104562Y-75880D01*
X104583Y-75937D01*
X104572Y-76022D01*
X104537Y-76080D01*
X104505Y-76108D01*
X104444Y-76137D01*
X104215Y-76137D01*
X105012Y-76394D02*
X104951Y-76422D01*
X104837Y-76422D01*
X104783Y-76394D01*
X104762Y-76337D01*
X104790Y-76108D01*
X104826Y-76051D01*
X104887Y-76022D01*
X105001Y-76022D01*
X105055Y-76051D01*
X105076Y-76108D01*
X105069Y-76165D01*
X104776Y-76222D01*
X105287Y-76022D02*
X105380Y-76422D01*
X105572Y-76022D01*
X105758Y-76365D02*
X105783Y-76394D01*
X105751Y-76422D01*
X105726Y-76394D01*
X105758Y-76365D01*
X105751Y-76422D01*
X105797Y-76051D02*
X105822Y-76080D01*
X105790Y-76108D01*
X105765Y-76080D01*
X105797Y-76051D01*
X105790Y-76108D01*
X106808Y-76422D02*
X106465Y-76422D01*
X106637Y-76422D02*
X106712Y-75822D01*
X106644Y-75908D01*
X106580Y-75965D01*
X106519Y-75994D01*
X107072Y-76365D02*
X107097Y-76394D01*
X107065Y-76422D01*
X107040Y-76394D01*
X107072Y-76365D01*
X107065Y-76422D01*
X107665Y-76422D02*
X107322Y-76422D01*
X107494Y-76422D02*
X107569Y-75822D01*
X107501Y-75908D01*
X107437Y-75965D01*
X107376Y-75994D01*
X70944Y-76394D02*
X71030Y-76422D01*
X71172Y-76422D01*
X71230Y-76394D01*
X71258Y-76365D01*
X71287Y-76308D01*
X71287Y-76251D01*
X71258Y-76194D01*
X71230Y-76165D01*
X71172Y-76137D01*
X71058Y-76108D01*
X71001Y-76080D01*
X70972Y-76051D01*
X70944Y-75994D01*
X70944Y-75937D01*
X70972Y-75880D01*
X71001Y-75851D01*
X71058Y-75822D01*
X71201Y-75822D01*
X71287Y-75851D01*
X71544Y-76422D02*
X71544Y-76022D01*
X71544Y-75822D02*
X71515Y-75851D01*
X71544Y-75880D01*
X71572Y-75851D01*
X71544Y-75822D01*
X71544Y-75880D01*
X71772Y-76022D02*
X72087Y-76022D01*
X71772Y-76422D01*
X72087Y-76422D01*
X72544Y-76394D02*
X72487Y-76422D01*
X72372Y-76422D01*
X72315Y-76394D01*
X72287Y-76337D01*
X72287Y-76108D01*
X72315Y-76051D01*
X72372Y-76022D01*
X72487Y-76022D01*
X72544Y-76051D01*
X72572Y-76108D01*
X72572Y-76165D01*
X72287Y-76222D01*
X72830Y-76365D02*
X72858Y-76394D01*
X72830Y-76422D01*
X72801Y-76394D01*
X72830Y-76365D01*
X72830Y-76422D01*
X72830Y-76051D02*
X72858Y-76080D01*
X72830Y-76108D01*
X72801Y-76080D01*
X72830Y-76051D01*
X72830Y-76108D01*
X73544Y-76251D02*
X73830Y-76251D01*
X73487Y-76422D02*
X73687Y-75822D01*
X73887Y-76422D01*
X74344Y-76022D02*
X74344Y-76422D01*
X74201Y-75794D02*
X74058Y-76222D01*
X74430Y-76222D01*
X104172Y-77622D02*
X104172Y-77022D01*
X104715Y-77622D02*
X104715Y-77022D01*
X104715Y-77594D02*
X104658Y-77622D01*
X104544Y-77622D01*
X104487Y-77594D01*
X104458Y-77565D01*
X104430Y-77508D01*
X104430Y-77337D01*
X104458Y-77280D01*
X104487Y-77251D01*
X104544Y-77222D01*
X104658Y-77222D01*
X104715Y-77251D01*
X105001Y-77565D02*
X105030Y-77594D01*
X105001Y-77622D01*
X104972Y-77594D01*
X105001Y-77565D01*
X105001Y-77622D01*
X105001Y-77251D02*
X105030Y-77280D01*
X105001Y-77308D01*
X104972Y-77280D01*
X105001Y-77251D01*
X105001Y-77308D01*
X106058Y-77622D02*
X105715Y-77622D01*
X105887Y-77622D02*
X105887Y-77022D01*
X105829Y-77108D01*
X105772Y-77165D01*
X105715Y-77194D01*
X106744Y-76994D02*
X106230Y-77765D01*
X107258Y-77622D02*
X106915Y-77622D01*
X107087Y-77622D02*
X107087Y-77022D01*
X107029Y-77108D01*
X106972Y-77165D01*
X106915Y-77194D01*
X70969Y-74622D02*
X71312Y-74622D01*
X71065Y-75222D02*
X71140Y-74622D01*
X71437Y-75222D02*
X71487Y-74822D01*
X71512Y-74622D02*
X71480Y-74651D01*
X71505Y-74680D01*
X71537Y-74651D01*
X71512Y-74622D01*
X71505Y-74680D01*
X71687Y-74822D02*
X71915Y-74822D01*
X71797Y-74622D02*
X71733Y-75137D01*
X71755Y-75194D01*
X71808Y-75222D01*
X71865Y-75222D01*
X72151Y-75222D02*
X72097Y-75194D01*
X72076Y-75137D01*
X72140Y-74622D01*
X72612Y-75194D02*
X72551Y-75222D01*
X72437Y-75222D01*
X72383Y-75194D01*
X72362Y-75137D01*
X72390Y-74908D01*
X72426Y-74851D01*
X72487Y-74822D01*
X72601Y-74822D01*
X72655Y-74851D01*
X72676Y-74908D01*
X72669Y-74965D01*
X72376Y-75022D01*
X72901Y-75165D02*
X72926Y-75194D01*
X72894Y-75222D01*
X72869Y-75194D01*
X72901Y-75165D01*
X72894Y-75222D01*
X72940Y-74851D02*
X72965Y-74880D01*
X72933Y-74908D01*
X72908Y-74880D01*
X72940Y-74851D01*
X72933Y-74908D01*
X73626Y-74622D02*
X73969Y-74622D01*
X73722Y-75222D02*
X73797Y-74622D01*
X74094Y-75222D02*
X74169Y-74622D01*
X74315Y-75051D01*
X74569Y-74622D01*
X74494Y-75222D01*
X75087Y-74822D02*
X75037Y-75222D01*
X74972Y-74594D02*
X74776Y-75022D01*
X75147Y-75022D01*
X75701Y-75165D02*
X75669Y-75194D01*
X75580Y-75222D01*
X75522Y-75222D01*
X75440Y-75194D01*
X75390Y-75137D01*
X75369Y-75080D01*
X75355Y-74965D01*
X75365Y-74880D01*
X75408Y-74765D01*
X75444Y-74708D01*
X75508Y-74651D01*
X75597Y-74622D01*
X75655Y-74622D01*
X75737Y-74651D01*
X75762Y-74680D01*
X76265Y-75222D02*
X75922Y-75222D01*
X76094Y-75222D02*
X76169Y-74622D01*
X76101Y-74708D01*
X76037Y-74765D01*
X75976Y-74794D01*
X76562Y-74680D02*
X76594Y-74651D01*
X76655Y-74622D01*
X76797Y-74622D01*
X76851Y-74651D01*
X76876Y-74680D01*
X76897Y-74737D01*
X76890Y-74794D01*
X76851Y-74880D01*
X76465Y-75222D01*
X76837Y-75222D01*
X77112Y-74622D02*
X77483Y-74622D01*
X77255Y-74851D01*
X77340Y-74851D01*
X77394Y-74880D01*
X77419Y-74908D01*
X77440Y-74965D01*
X77422Y-75108D01*
X77387Y-75165D01*
X77355Y-75194D01*
X77294Y-75222D01*
X77122Y-75222D01*
X77069Y-75194D01*
X77044Y-75165D01*
X78051Y-74651D02*
X77997Y-74622D01*
X77912Y-74622D01*
X77822Y-74651D01*
X77758Y-74708D01*
X77722Y-74765D01*
X77680Y-74880D01*
X77669Y-74965D01*
X77683Y-75080D01*
X77705Y-75137D01*
X77755Y-75194D01*
X77837Y-75222D01*
X77894Y-75222D01*
X77983Y-75194D01*
X78015Y-75165D01*
X78040Y-74965D01*
X77926Y-74965D01*
X79072Y-75165D02*
X79040Y-75194D01*
X78951Y-75222D01*
X78894Y-75222D01*
X78812Y-75194D01*
X78762Y-75137D01*
X78740Y-75080D01*
X78726Y-74965D01*
X78737Y-74880D01*
X78780Y-74765D01*
X78815Y-74708D01*
X78880Y-74651D01*
X78969Y-74622D01*
X79026Y-74622D01*
X79108Y-74651D01*
X79133Y-74680D01*
X79408Y-75222D02*
X79355Y-75194D01*
X79330Y-75165D01*
X79308Y-75108D01*
X79330Y-74937D01*
X79365Y-74880D01*
X79397Y-74851D01*
X79458Y-74822D01*
X79544Y-74822D01*
X79597Y-74851D01*
X79622Y-74880D01*
X79644Y-74937D01*
X79622Y-75108D01*
X79587Y-75165D01*
X79555Y-75194D01*
X79494Y-75222D01*
X79408Y-75222D01*
X79865Y-75222D02*
X79915Y-74822D01*
X79908Y-74880D02*
X79940Y-74851D01*
X80001Y-74822D01*
X80087Y-74822D01*
X80140Y-74851D01*
X80162Y-74908D01*
X80122Y-75222D01*
X80162Y-74908D02*
X80197Y-74851D01*
X80258Y-74822D01*
X80344Y-74822D01*
X80397Y-74851D01*
X80419Y-74908D01*
X80380Y-75222D01*
X80665Y-75222D02*
X80715Y-74822D01*
X80708Y-74880D02*
X80740Y-74851D01*
X80801Y-74822D01*
X80887Y-74822D01*
X80940Y-74851D01*
X80962Y-74908D01*
X80922Y-75222D01*
X80962Y-74908D02*
X80997Y-74851D01*
X81058Y-74822D01*
X81144Y-74822D01*
X81197Y-74851D01*
X81219Y-74908D01*
X81180Y-75222D01*
X81772Y-74822D02*
X81722Y-75222D01*
X81515Y-74822D02*
X81476Y-75137D01*
X81497Y-75194D01*
X81551Y-75222D01*
X81637Y-75222D01*
X81697Y-75194D01*
X81730Y-75165D01*
X82058Y-74822D02*
X82008Y-75222D01*
X82051Y-74880D02*
X82083Y-74851D01*
X82144Y-74822D01*
X82230Y-74822D01*
X82283Y-74851D01*
X82305Y-74908D01*
X82265Y-75222D01*
X82551Y-75222D02*
X82601Y-74822D01*
X82626Y-74622D02*
X82594Y-74651D01*
X82619Y-74680D01*
X82651Y-74651D01*
X82626Y-74622D01*
X82619Y-74680D01*
X83097Y-75194D02*
X83037Y-75222D01*
X82922Y-75222D01*
X82869Y-75194D01*
X82844Y-75165D01*
X82822Y-75108D01*
X82844Y-74937D01*
X82880Y-74880D01*
X82912Y-74851D01*
X82972Y-74822D01*
X83087Y-74822D01*
X83140Y-74851D01*
X83608Y-75222D02*
X83647Y-74908D01*
X83626Y-74851D01*
X83572Y-74822D01*
X83458Y-74822D01*
X83397Y-74851D01*
X83612Y-75194D02*
X83551Y-75222D01*
X83408Y-75222D01*
X83355Y-75194D01*
X83333Y-75137D01*
X83340Y-75080D01*
X83376Y-75022D01*
X83437Y-74994D01*
X83580Y-74994D01*
X83640Y-74965D01*
X83858Y-74822D02*
X84087Y-74822D01*
X83969Y-74622D02*
X83905Y-75137D01*
X83926Y-75194D01*
X83980Y-75222D01*
X84037Y-75222D01*
X84237Y-75222D02*
X84287Y-74822D01*
X84312Y-74622D02*
X84280Y-74651D01*
X84305Y-74680D01*
X84337Y-74651D01*
X84312Y-74622D01*
X84305Y-74680D01*
X84608Y-75222D02*
X84555Y-75194D01*
X84530Y-75165D01*
X84508Y-75108D01*
X84530Y-74937D01*
X84565Y-74880D01*
X84597Y-74851D01*
X84658Y-74822D01*
X84744Y-74822D01*
X84797Y-74851D01*
X84822Y-74880D01*
X84844Y-74937D01*
X84822Y-75108D01*
X84787Y-75165D01*
X84755Y-75194D01*
X84694Y-75222D01*
X84608Y-75222D01*
X85115Y-74822D02*
X85065Y-75222D01*
X85108Y-74880D02*
X85140Y-74851D01*
X85201Y-74822D01*
X85287Y-74822D01*
X85340Y-74851D01*
X85362Y-74908D01*
X85322Y-75222D01*
X86105Y-74908D02*
X86305Y-74908D01*
X86351Y-75222D02*
X86065Y-75222D01*
X86140Y-74622D01*
X86426Y-74622D01*
X86551Y-75222D02*
X86915Y-74822D01*
X86601Y-74822D02*
X86865Y-75222D01*
X87144Y-74822D02*
X87069Y-75422D01*
X87140Y-74851D02*
X87201Y-74822D01*
X87315Y-74822D01*
X87369Y-74851D01*
X87394Y-74880D01*
X87415Y-74937D01*
X87394Y-75108D01*
X87358Y-75165D01*
X87326Y-75194D01*
X87265Y-75222D01*
X87151Y-75222D01*
X87097Y-75194D01*
X87894Y-75222D02*
X87933Y-74908D01*
X87912Y-74851D01*
X87858Y-74822D01*
X87744Y-74822D01*
X87683Y-74851D01*
X87897Y-75194D02*
X87837Y-75222D01*
X87694Y-75222D01*
X87640Y-75194D01*
X87619Y-75137D01*
X87626Y-75080D01*
X87662Y-75022D01*
X87722Y-74994D01*
X87865Y-74994D01*
X87926Y-74965D01*
X88230Y-74822D02*
X88180Y-75222D01*
X88222Y-74880D02*
X88255Y-74851D01*
X88315Y-74822D01*
X88401Y-74822D01*
X88455Y-74851D01*
X88476Y-74908D01*
X88437Y-75222D01*
X88697Y-75194D02*
X88751Y-75222D01*
X88865Y-75222D01*
X88926Y-75194D01*
X88962Y-75137D01*
X88965Y-75108D01*
X88944Y-75051D01*
X88890Y-75022D01*
X88805Y-75022D01*
X88751Y-74994D01*
X88730Y-74937D01*
X88733Y-74908D01*
X88769Y-74851D01*
X88830Y-74822D01*
X88915Y-74822D01*
X88969Y-74851D01*
X89208Y-75222D02*
X89258Y-74822D01*
X89283Y-74622D02*
X89251Y-74651D01*
X89276Y-74680D01*
X89308Y-74651D01*
X89283Y-74622D01*
X89276Y-74680D01*
X89579Y-75222D02*
X89526Y-75194D01*
X89501Y-75165D01*
X89480Y-75108D01*
X89501Y-74937D01*
X89537Y-74880D01*
X89569Y-74851D01*
X89629Y-74822D01*
X89715Y-74822D01*
X89769Y-74851D01*
X89794Y-74880D01*
X89815Y-74937D01*
X89794Y-75108D01*
X89758Y-75165D01*
X89726Y-75194D01*
X89665Y-75222D01*
X89579Y-75222D01*
X90087Y-74822D02*
X90037Y-75222D01*
X90079Y-74880D02*
X90112Y-74851D01*
X90172Y-74822D01*
X90258Y-74822D01*
X90312Y-74851D01*
X90333Y-74908D01*
X90294Y-75222D01*
X91276Y-74908D02*
X91358Y-74937D01*
X91383Y-74965D01*
X91404Y-75022D01*
X91394Y-75108D01*
X91358Y-75165D01*
X91326Y-75194D01*
X91265Y-75222D01*
X91037Y-75222D01*
X91112Y-74622D01*
X91312Y-74622D01*
X91365Y-74651D01*
X91390Y-74680D01*
X91412Y-74737D01*
X91404Y-74794D01*
X91369Y-74851D01*
X91337Y-74880D01*
X91276Y-74908D01*
X91076Y-74908D01*
X91722Y-75222D02*
X91669Y-75194D01*
X91644Y-75165D01*
X91622Y-75108D01*
X91644Y-74937D01*
X91679Y-74880D01*
X91712Y-74851D01*
X91772Y-74822D01*
X91858Y-74822D01*
X91912Y-74851D01*
X91937Y-74880D01*
X91958Y-74937D01*
X91937Y-75108D01*
X91901Y-75165D01*
X91869Y-75194D01*
X91808Y-75222D01*
X91722Y-75222D01*
X92437Y-75222D02*
X92476Y-74908D01*
X92454Y-74851D01*
X92401Y-74822D01*
X92287Y-74822D01*
X92226Y-74851D01*
X92440Y-75194D02*
X92379Y-75222D01*
X92237Y-75222D01*
X92183Y-75194D01*
X92162Y-75137D01*
X92169Y-75080D01*
X92204Y-75022D01*
X92265Y-74994D01*
X92408Y-74994D01*
X92469Y-74965D01*
X92722Y-75222D02*
X92772Y-74822D01*
X92758Y-74937D02*
X92794Y-74880D01*
X92826Y-74851D01*
X92887Y-74822D01*
X92944Y-74822D01*
X93351Y-75222D02*
X93426Y-74622D01*
X93354Y-75194D02*
X93294Y-75222D01*
X93179Y-75222D01*
X93126Y-75194D01*
X93101Y-75165D01*
X93080Y-75108D01*
X93101Y-74937D01*
X93137Y-74880D01*
X93169Y-74851D01*
X93229Y-74822D01*
X93344Y-74822D01*
X93397Y-74851D01*
X71172Y-72508D02*
X70972Y-72508D01*
X70972Y-72822D02*
X70972Y-72222D01*
X71258Y-72222D01*
X71487Y-72822D02*
X71487Y-72422D01*
X71487Y-72222D02*
X71458Y-72251D01*
X71487Y-72280D01*
X71515Y-72251D01*
X71487Y-72222D01*
X71487Y-72280D01*
X71858Y-72822D02*
X71801Y-72794D01*
X71772Y-72737D01*
X71772Y-72222D01*
X72315Y-72794D02*
X72258Y-72822D01*
X72144Y-72822D01*
X72087Y-72794D01*
X72058Y-72737D01*
X72058Y-72508D01*
X72087Y-72451D01*
X72144Y-72422D01*
X72258Y-72422D01*
X72315Y-72451D01*
X72344Y-72508D01*
X72344Y-72565D01*
X72058Y-72622D01*
X72601Y-72765D02*
X72630Y-72794D01*
X72601Y-72822D01*
X72572Y-72794D01*
X72601Y-72765D01*
X72601Y-72822D01*
X72601Y-72451D02*
X72630Y-72480D01*
X72601Y-72508D01*
X72572Y-72480D01*
X72601Y-72451D01*
X72601Y-72508D01*
X73258Y-72222D02*
X73601Y-72222D01*
X73430Y-72822D02*
X73430Y-72222D01*
X73801Y-72822D02*
X73801Y-72222D01*
X74001Y-72651D01*
X74201Y-72222D01*
X74201Y-72822D01*
X74744Y-72422D02*
X74744Y-72822D01*
X74601Y-72194D02*
X74458Y-72622D01*
X74830Y-72622D01*
X75401Y-72765D02*
X75372Y-72794D01*
X75287Y-72822D01*
X75230Y-72822D01*
X75144Y-72794D01*
X75087Y-72737D01*
X75058Y-72680D01*
X75030Y-72565D01*
X75030Y-72480D01*
X75058Y-72365D01*
X75087Y-72308D01*
X75144Y-72251D01*
X75230Y-72222D01*
X75287Y-72222D01*
X75372Y-72251D01*
X75401Y-72280D01*
X75972Y-72822D02*
X75630Y-72822D01*
X75801Y-72822D02*
X75801Y-72222D01*
X75744Y-72308D01*
X75687Y-72365D01*
X75630Y-72394D01*
X76201Y-72280D02*
X76230Y-72251D01*
X76287Y-72222D01*
X76430Y-72222D01*
X76487Y-72251D01*
X76515Y-72280D01*
X76544Y-72337D01*
X76544Y-72394D01*
X76515Y-72480D01*
X76172Y-72822D01*
X76544Y-72822D01*
X76744Y-72222D02*
X77115Y-72222D01*
X76915Y-72451D01*
X77001Y-72451D01*
X77058Y-72480D01*
X77087Y-72508D01*
X77115Y-72565D01*
X77115Y-72708D01*
X77087Y-72765D01*
X77058Y-72794D01*
X77001Y-72822D01*
X76830Y-72822D01*
X76772Y-72794D01*
X76744Y-72765D01*
X77687Y-72251D02*
X77630Y-72222D01*
X77544Y-72222D01*
X77458Y-72251D01*
X77401Y-72308D01*
X77372Y-72365D01*
X77344Y-72480D01*
X77344Y-72565D01*
X77372Y-72680D01*
X77401Y-72737D01*
X77458Y-72794D01*
X77544Y-72822D01*
X77601Y-72822D01*
X77687Y-72794D01*
X77715Y-72765D01*
X77715Y-72565D01*
X77601Y-72565D01*
X77830Y-72880D02*
X78287Y-72880D01*
X78772Y-72765D02*
X78744Y-72794D01*
X78658Y-72822D01*
X78601Y-72822D01*
X78515Y-72794D01*
X78458Y-72737D01*
X78430Y-72680D01*
X78401Y-72565D01*
X78401Y-72480D01*
X78430Y-72365D01*
X78458Y-72308D01*
X78515Y-72251D01*
X78601Y-72222D01*
X78658Y-72222D01*
X78744Y-72251D01*
X78772Y-72280D01*
X79115Y-72822D02*
X79058Y-72794D01*
X79030Y-72765D01*
X79001Y-72708D01*
X79001Y-72537D01*
X79030Y-72480D01*
X79058Y-72451D01*
X79115Y-72422D01*
X79201Y-72422D01*
X79258Y-72451D01*
X79287Y-72480D01*
X79315Y-72537D01*
X79315Y-72708D01*
X79287Y-72765D01*
X79258Y-72794D01*
X79201Y-72822D01*
X79115Y-72822D01*
X79572Y-72822D02*
X79572Y-72422D01*
X79572Y-72480D02*
X79601Y-72451D01*
X79658Y-72422D01*
X79744Y-72422D01*
X79801Y-72451D01*
X79830Y-72508D01*
X79830Y-72822D01*
X79830Y-72508D02*
X79858Y-72451D01*
X79915Y-72422D01*
X80001Y-72422D01*
X80058Y-72451D01*
X80087Y-72508D01*
X80087Y-72822D01*
X80372Y-72822D02*
X80372Y-72422D01*
X80372Y-72480D02*
X80401Y-72451D01*
X80458Y-72422D01*
X80544Y-72422D01*
X80601Y-72451D01*
X80630Y-72508D01*
X80630Y-72822D01*
X80630Y-72508D02*
X80658Y-72451D01*
X80715Y-72422D01*
X80801Y-72422D01*
X80858Y-72451D01*
X80887Y-72508D01*
X80887Y-72822D01*
X81172Y-72508D02*
X81372Y-72508D01*
X81458Y-72822D02*
X81172Y-72822D01*
X81172Y-72222D01*
X81458Y-72222D01*
X81658Y-72822D02*
X81972Y-72422D01*
X81658Y-72422D02*
X81972Y-72822D01*
X82201Y-72422D02*
X82201Y-73022D01*
X82201Y-72451D02*
X82258Y-72422D01*
X82372Y-72422D01*
X82430Y-72451D01*
X82458Y-72480D01*
X82487Y-72537D01*
X82487Y-72708D01*
X82458Y-72765D01*
X82430Y-72794D01*
X82372Y-72822D01*
X82258Y-72822D01*
X82201Y-72794D01*
X82944Y-72508D02*
X83030Y-72537D01*
X83058Y-72565D01*
X83087Y-72622D01*
X83087Y-72708D01*
X83058Y-72765D01*
X83030Y-72794D01*
X82972Y-72822D01*
X82744Y-72822D01*
X82744Y-72222D01*
X82944Y-72222D01*
X83001Y-72251D01*
X83030Y-72280D01*
X83058Y-72337D01*
X83058Y-72394D01*
X83030Y-72451D01*
X83001Y-72480D01*
X82944Y-72508D01*
X82744Y-72508D01*
X83430Y-72822D02*
X83372Y-72794D01*
X83344Y-72765D01*
X83315Y-72708D01*
X83315Y-72537D01*
X83344Y-72480D01*
X83372Y-72451D01*
X83430Y-72422D01*
X83515Y-72422D01*
X83572Y-72451D01*
X83601Y-72480D01*
X83630Y-72537D01*
X83630Y-72708D01*
X83601Y-72765D01*
X83572Y-72794D01*
X83515Y-72822D01*
X83430Y-72822D01*
X84144Y-72822D02*
X84144Y-72508D01*
X84115Y-72451D01*
X84058Y-72422D01*
X83944Y-72422D01*
X83887Y-72451D01*
X84144Y-72794D02*
X84087Y-72822D01*
X83944Y-72822D01*
X83887Y-72794D01*
X83858Y-72737D01*
X83858Y-72680D01*
X83887Y-72622D01*
X83944Y-72594D01*
X84087Y-72594D01*
X84144Y-72565D01*
X84430Y-72822D02*
X84430Y-72422D01*
X84430Y-72537D02*
X84458Y-72480D01*
X84487Y-72451D01*
X84544Y-72422D01*
X84601Y-72422D01*
X85058Y-72822D02*
X85058Y-72222D01*
X85058Y-72794D02*
X85001Y-72822D01*
X84887Y-72822D01*
X84830Y-72794D01*
X84801Y-72765D01*
X84772Y-72708D01*
X84772Y-72537D01*
X84801Y-72480D01*
X84830Y-72451D01*
X84887Y-72422D01*
X85001Y-72422D01*
X85058Y-72451D01*
X85344Y-72765D02*
X85372Y-72794D01*
X85344Y-72822D01*
X85315Y-72794D01*
X85344Y-72765D01*
X85344Y-72822D01*
X85630Y-72822D02*
X85630Y-72222D01*
X85687Y-72594D02*
X85858Y-72822D01*
X85858Y-72422D02*
X85630Y-72651D01*
X86115Y-72822D02*
X86115Y-72422D01*
X86115Y-72222D02*
X86087Y-72251D01*
X86115Y-72280D01*
X86144Y-72251D01*
X86115Y-72222D01*
X86115Y-72280D01*
X86658Y-72794D02*
X86601Y-72822D01*
X86487Y-72822D01*
X86430Y-72794D01*
X86401Y-72765D01*
X86372Y-72708D01*
X86372Y-72537D01*
X86401Y-72480D01*
X86430Y-72451D01*
X86487Y-72422D01*
X86601Y-72422D01*
X86658Y-72451D01*
X87172Y-72822D02*
X87172Y-72508D01*
X87144Y-72451D01*
X87087Y-72422D01*
X86972Y-72422D01*
X86915Y-72451D01*
X87172Y-72794D02*
X87115Y-72822D01*
X86972Y-72822D01*
X86915Y-72794D01*
X86887Y-72737D01*
X86887Y-72680D01*
X86915Y-72622D01*
X86972Y-72594D01*
X87115Y-72594D01*
X87172Y-72565D01*
X87715Y-72822D02*
X87715Y-72222D01*
X87715Y-72794D02*
X87658Y-72822D01*
X87544Y-72822D01*
X87487Y-72794D01*
X87458Y-72765D01*
X87430Y-72708D01*
X87430Y-72537D01*
X87458Y-72480D01*
X87487Y-72451D01*
X87544Y-72422D01*
X87658Y-72422D01*
X87715Y-72451D01*
X87858Y-72880D02*
X88315Y-72880D01*
X88458Y-72422D02*
X88458Y-73022D01*
X88458Y-72451D02*
X88515Y-72422D01*
X88630Y-72422D01*
X88687Y-72451D01*
X88715Y-72480D01*
X88744Y-72537D01*
X88744Y-72708D01*
X88715Y-72765D01*
X88687Y-72794D01*
X88630Y-72822D01*
X88515Y-72822D01*
X88458Y-72794D01*
X89258Y-72794D02*
X89201Y-72822D01*
X89087Y-72822D01*
X89030Y-72794D01*
X89001Y-72765D01*
X88972Y-72708D01*
X88972Y-72537D01*
X89001Y-72480D01*
X89030Y-72451D01*
X89087Y-72422D01*
X89201Y-72422D01*
X89258Y-72451D01*
X89515Y-72822D02*
X89515Y-72222D01*
X89515Y-72451D02*
X89572Y-72422D01*
X89687Y-72422D01*
X89744Y-72451D01*
X89772Y-72480D01*
X89801Y-72537D01*
X89801Y-72708D01*
X89772Y-72765D01*
X89744Y-72794D01*
X89687Y-72822D01*
X89572Y-72822D01*
X89515Y-72794D01*
X70944Y-73994D02*
X71030Y-74022D01*
X71172Y-74022D01*
X71230Y-73994D01*
X71258Y-73965D01*
X71287Y-73908D01*
X71287Y-73851D01*
X71258Y-73794D01*
X71230Y-73765D01*
X71172Y-73737D01*
X71058Y-73708D01*
X71001Y-73680D01*
X70972Y-73651D01*
X70944Y-73594D01*
X70944Y-73537D01*
X70972Y-73480D01*
X71001Y-73451D01*
X71058Y-73422D01*
X71201Y-73422D01*
X71287Y-73451D01*
X71544Y-74022D02*
X71544Y-73422D01*
X71801Y-74022D02*
X71801Y-73708D01*
X71772Y-73651D01*
X71715Y-73622D01*
X71630Y-73622D01*
X71572Y-73651D01*
X71544Y-73680D01*
X72315Y-73994D02*
X72258Y-74022D01*
X72144Y-74022D01*
X72087Y-73994D01*
X72058Y-73937D01*
X72058Y-73708D01*
X72087Y-73651D01*
X72144Y-73622D01*
X72258Y-73622D01*
X72315Y-73651D01*
X72344Y-73708D01*
X72344Y-73765D01*
X72058Y-73822D01*
X72830Y-73994D02*
X72772Y-74022D01*
X72658Y-74022D01*
X72601Y-73994D01*
X72572Y-73937D01*
X72572Y-73708D01*
X72601Y-73651D01*
X72658Y-73622D01*
X72772Y-73622D01*
X72830Y-73651D01*
X72858Y-73708D01*
X72858Y-73765D01*
X72572Y-73822D01*
X73030Y-73622D02*
X73258Y-73622D01*
X73115Y-73422D02*
X73115Y-73937D01*
X73144Y-73994D01*
X73201Y-74022D01*
X73258Y-74022D01*
X73458Y-73965D02*
X73487Y-73994D01*
X73458Y-74022D01*
X73430Y-73994D01*
X73458Y-73965D01*
X73458Y-74022D01*
X73458Y-73651D02*
X73487Y-73680D01*
X73458Y-73708D01*
X73430Y-73680D01*
X73458Y-73651D01*
X73458Y-73708D01*
X71265Y-71622D02*
X70980Y-71622D01*
X71055Y-71022D01*
X71772Y-71222D02*
X71722Y-71622D01*
X71515Y-71222D02*
X71476Y-71537D01*
X71497Y-71594D01*
X71551Y-71622D01*
X71637Y-71622D01*
X71697Y-71594D01*
X71730Y-71565D01*
X72269Y-71594D02*
X72208Y-71622D01*
X72094Y-71622D01*
X72040Y-71594D01*
X72015Y-71565D01*
X71994Y-71508D01*
X72015Y-71337D01*
X72051Y-71280D01*
X72083Y-71251D01*
X72144Y-71222D01*
X72258Y-71222D01*
X72312Y-71251D01*
X72780Y-71622D02*
X72819Y-71308D01*
X72797Y-71251D01*
X72744Y-71222D01*
X72630Y-71222D01*
X72569Y-71251D01*
X72783Y-71594D02*
X72722Y-71622D01*
X72580Y-71622D01*
X72526Y-71594D01*
X72505Y-71537D01*
X72512Y-71480D01*
X72547Y-71422D01*
X72608Y-71394D01*
X72751Y-71394D01*
X72812Y-71365D01*
X73762Y-71308D02*
X73844Y-71337D01*
X73869Y-71365D01*
X73890Y-71422D01*
X73880Y-71508D01*
X73844Y-71565D01*
X73812Y-71594D01*
X73751Y-71622D01*
X73522Y-71622D01*
X73597Y-71022D01*
X73797Y-71022D01*
X73851Y-71051D01*
X73876Y-71080D01*
X73897Y-71137D01*
X73890Y-71194D01*
X73854Y-71251D01*
X73822Y-71280D01*
X73762Y-71308D01*
X73562Y-71308D01*
X74430Y-71222D02*
X74380Y-71622D01*
X74172Y-71222D02*
X74133Y-71537D01*
X74155Y-71594D01*
X74208Y-71622D01*
X74294Y-71622D01*
X74355Y-71594D01*
X74387Y-71565D01*
X74926Y-71594D02*
X74865Y-71622D01*
X74751Y-71622D01*
X74697Y-71594D01*
X74672Y-71565D01*
X74651Y-71508D01*
X74672Y-71337D01*
X74708Y-71280D01*
X74740Y-71251D01*
X74801Y-71222D01*
X74915Y-71222D01*
X74969Y-71251D01*
X75440Y-71594D02*
X75380Y-71622D01*
X75265Y-71622D01*
X75212Y-71594D01*
X75187Y-71565D01*
X75165Y-71508D01*
X75187Y-71337D01*
X75222Y-71280D01*
X75255Y-71251D01*
X75315Y-71222D01*
X75430Y-71222D01*
X75483Y-71251D01*
X75780Y-71622D02*
X75726Y-71594D01*
X75701Y-71565D01*
X75680Y-71508D01*
X75701Y-71337D01*
X75737Y-71280D01*
X75769Y-71251D01*
X75830Y-71222D01*
X75915Y-71222D01*
X75969Y-71251D01*
X75994Y-71280D01*
X76015Y-71337D01*
X75994Y-71508D01*
X75958Y-71565D01*
X75926Y-71594D01*
X75865Y-71622D01*
X75780Y-71622D01*
X76322Y-71622D02*
X76269Y-71594D01*
X76247Y-71537D01*
X76312Y-71022D01*
X76551Y-71622D02*
X76601Y-71222D01*
X76626Y-71022D02*
X76594Y-71051D01*
X76619Y-71080D01*
X76651Y-71051D01*
X76626Y-71022D01*
X76619Y-71080D01*
X76887Y-71222D02*
X76837Y-71622D01*
X76880Y-71280D02*
X76912Y-71251D01*
X76972Y-71222D01*
X77058Y-71222D01*
X77112Y-71251D01*
X77133Y-71308D01*
X77094Y-71622D01*
X77380Y-71622D02*
X77430Y-71222D01*
X77455Y-71022D02*
X77422Y-71051D01*
X77447Y-71080D01*
X77480Y-71051D01*
X77455Y-71022D01*
X77447Y-71080D01*
X77697Y-71594D02*
X77694Y-71622D01*
X77658Y-71680D01*
X77626Y-71708D01*
X78383Y-71594D02*
X78465Y-71622D01*
X78608Y-71622D01*
X78669Y-71594D01*
X78701Y-71565D01*
X78737Y-71508D01*
X78744Y-71451D01*
X78722Y-71394D01*
X78697Y-71365D01*
X78644Y-71337D01*
X78533Y-71308D01*
X78480Y-71280D01*
X78454Y-71251D01*
X78433Y-71194D01*
X78440Y-71137D01*
X78476Y-71080D01*
X78508Y-71051D01*
X78569Y-71022D01*
X78712Y-71022D01*
X78794Y-71051D01*
X78944Y-71222D02*
X79172Y-71222D01*
X79055Y-71022D02*
X78990Y-71537D01*
X79012Y-71594D01*
X79065Y-71622D01*
X79122Y-71622D01*
X79630Y-71222D02*
X79580Y-71622D01*
X79372Y-71222D02*
X79333Y-71537D01*
X79355Y-71594D01*
X79408Y-71622D01*
X79494Y-71622D01*
X79555Y-71594D01*
X79587Y-71565D01*
X80122Y-71622D02*
X80197Y-71022D01*
X80126Y-71594D02*
X80065Y-71622D01*
X79951Y-71622D01*
X79897Y-71594D01*
X79872Y-71565D01*
X79851Y-71508D01*
X79872Y-71337D01*
X79908Y-71280D01*
X79940Y-71251D01*
X80001Y-71222D01*
X80115Y-71222D01*
X80169Y-71251D01*
X80640Y-71594D02*
X80580Y-71622D01*
X80465Y-71622D01*
X80412Y-71594D01*
X80390Y-71537D01*
X80419Y-71308D01*
X80454Y-71251D01*
X80515Y-71222D01*
X80630Y-71222D01*
X80683Y-71251D01*
X80705Y-71308D01*
X80697Y-71365D01*
X80405Y-71422D01*
X80972Y-71222D02*
X80922Y-71622D01*
X80965Y-71280D02*
X80997Y-71251D01*
X81058Y-71222D01*
X81144Y-71222D01*
X81197Y-71251D01*
X81219Y-71308D01*
X81180Y-71622D01*
X81430Y-71222D02*
X81658Y-71222D01*
X81540Y-71022D02*
X81476Y-71537D01*
X81497Y-71594D01*
X81551Y-71622D01*
X81608Y-71622D01*
X82672Y-71337D02*
X82647Y-71308D01*
X82594Y-71280D01*
X82537Y-71280D01*
X82476Y-71308D01*
X82444Y-71337D01*
X82408Y-71394D01*
X82401Y-71451D01*
X82422Y-71508D01*
X82447Y-71537D01*
X82501Y-71565D01*
X82558Y-71565D01*
X82619Y-71537D01*
X82651Y-71508D01*
X82680Y-71280D02*
X82651Y-71508D01*
X82676Y-71537D01*
X82705Y-71537D01*
X82765Y-71508D01*
X82801Y-71451D01*
X82819Y-71308D01*
X82772Y-71222D01*
X82694Y-71165D01*
X82583Y-71137D01*
X82465Y-71165D01*
X82372Y-71222D01*
X82305Y-71308D01*
X82262Y-71422D01*
X82276Y-71537D01*
X82322Y-71622D01*
X82401Y-71680D01*
X82512Y-71708D01*
X82630Y-71680D01*
X82722Y-71622D01*
X83569Y-71022D02*
X83508Y-71508D01*
X83530Y-71565D01*
X83555Y-71594D01*
X83608Y-71622D01*
X83722Y-71622D01*
X83783Y-71594D01*
X83815Y-71565D01*
X83851Y-71508D01*
X83912Y-71022D01*
X84172Y-71222D02*
X84122Y-71622D01*
X84165Y-71280D02*
X84197Y-71251D01*
X84258Y-71222D01*
X84344Y-71222D01*
X84397Y-71251D01*
X84419Y-71308D01*
X84380Y-71622D01*
X84665Y-71622D02*
X84715Y-71222D01*
X84740Y-71022D02*
X84708Y-71051D01*
X84733Y-71080D01*
X84765Y-71051D01*
X84740Y-71022D01*
X84733Y-71080D01*
X84944Y-71222D02*
X85037Y-71622D01*
X85230Y-71222D01*
X85640Y-71594D02*
X85580Y-71622D01*
X85465Y-71622D01*
X85412Y-71594D01*
X85390Y-71537D01*
X85419Y-71308D01*
X85454Y-71251D01*
X85515Y-71222D01*
X85630Y-71222D01*
X85683Y-71251D01*
X85705Y-71308D01*
X85697Y-71365D01*
X85405Y-71422D01*
X85922Y-71622D02*
X85972Y-71222D01*
X85958Y-71337D02*
X85994Y-71280D01*
X86026Y-71251D01*
X86087Y-71222D01*
X86144Y-71222D01*
X86269Y-71594D02*
X86322Y-71622D01*
X86437Y-71622D01*
X86497Y-71594D01*
X86533Y-71537D01*
X86537Y-71508D01*
X86515Y-71451D01*
X86462Y-71422D01*
X86376Y-71422D01*
X86322Y-71394D01*
X86301Y-71337D01*
X86305Y-71308D01*
X86340Y-71251D01*
X86401Y-71222D01*
X86487Y-71222D01*
X86540Y-71251D01*
X86780Y-71622D02*
X86830Y-71222D01*
X86855Y-71022D02*
X86822Y-71051D01*
X86847Y-71080D01*
X86880Y-71051D01*
X86855Y-71022D01*
X86847Y-71080D01*
X87030Y-71222D02*
X87258Y-71222D01*
X87140Y-71022D02*
X87076Y-71537D01*
X87097Y-71594D01*
X87151Y-71622D01*
X87208Y-71622D01*
X87665Y-71622D02*
X87705Y-71308D01*
X87683Y-71251D01*
X87630Y-71222D01*
X87515Y-71222D01*
X87454Y-71251D01*
X87669Y-71594D02*
X87608Y-71622D01*
X87465Y-71622D01*
X87412Y-71594D01*
X87390Y-71537D01*
X87397Y-71480D01*
X87433Y-71422D01*
X87494Y-71394D01*
X87637Y-71394D01*
X87697Y-71365D01*
X87544Y-70994D02*
X87619Y-71080D01*
X88408Y-71622D02*
X88483Y-71022D01*
X88712Y-71022D01*
X88765Y-71051D01*
X88790Y-71080D01*
X88812Y-71137D01*
X88801Y-71222D01*
X88765Y-71280D01*
X88733Y-71308D01*
X88672Y-71337D01*
X88444Y-71337D01*
X89094Y-71622D02*
X89040Y-71594D01*
X89015Y-71565D01*
X88994Y-71508D01*
X89015Y-71337D01*
X89051Y-71280D01*
X89083Y-71251D01*
X89144Y-71222D01*
X89230Y-71222D01*
X89283Y-71251D01*
X89308Y-71280D01*
X89329Y-71337D01*
X89308Y-71508D01*
X89272Y-71565D01*
X89240Y-71594D01*
X89180Y-71622D01*
X89094Y-71622D01*
X89637Y-71622D02*
X89583Y-71594D01*
X89562Y-71537D01*
X89626Y-71022D01*
X89865Y-71622D02*
X89915Y-71222D01*
X89940Y-71022D02*
X89908Y-71051D01*
X89933Y-71080D01*
X89965Y-71051D01*
X89940Y-71022D01*
X89933Y-71080D01*
X90115Y-71222D02*
X90344Y-71222D01*
X90226Y-71022D02*
X90162Y-71537D01*
X90183Y-71594D01*
X90237Y-71622D01*
X90294Y-71622D01*
X90726Y-71594D02*
X90665Y-71622D01*
X90551Y-71622D01*
X90497Y-71594D01*
X90476Y-71537D01*
X90505Y-71308D01*
X90540Y-71251D01*
X90601Y-71222D01*
X90715Y-71222D01*
X90769Y-71251D01*
X90790Y-71308D01*
X90783Y-71365D01*
X90490Y-71422D01*
X91269Y-71594D02*
X91208Y-71622D01*
X91094Y-71622D01*
X91040Y-71594D01*
X91015Y-71565D01*
X90994Y-71508D01*
X91015Y-71337D01*
X91051Y-71280D01*
X91083Y-71251D01*
X91144Y-71222D01*
X91258Y-71222D01*
X91312Y-71251D01*
X91572Y-71222D02*
X91522Y-71622D01*
X91565Y-71280D02*
X91597Y-71251D01*
X91658Y-71222D01*
X91744Y-71222D01*
X91797Y-71251D01*
X91819Y-71308D01*
X91780Y-71622D01*
X92065Y-71622D02*
X92115Y-71222D01*
X92140Y-71022D02*
X92108Y-71051D01*
X92133Y-71080D01*
X92165Y-71051D01*
X92140Y-71022D01*
X92133Y-71080D01*
X92612Y-71594D02*
X92551Y-71622D01*
X92437Y-71622D01*
X92383Y-71594D01*
X92358Y-71565D01*
X92337Y-71508D01*
X92358Y-71337D01*
X92394Y-71280D01*
X92426Y-71251D01*
X92487Y-71222D01*
X92601Y-71222D01*
X92654Y-71251D01*
X93122Y-71622D02*
X93162Y-71308D01*
X93140Y-71251D01*
X93087Y-71222D01*
X92972Y-71222D01*
X92912Y-71251D01*
X93126Y-71594D02*
X93065Y-71622D01*
X92922Y-71622D01*
X92869Y-71594D01*
X92847Y-71537D01*
X92855Y-71480D01*
X92890Y-71422D01*
X92951Y-71394D01*
X93094Y-71394D01*
X93155Y-71365D01*
X94122Y-71622D02*
X94197Y-71022D01*
X94126Y-71594D02*
X94065Y-71622D01*
X93951Y-71622D01*
X93897Y-71594D01*
X93872Y-71565D01*
X93851Y-71508D01*
X93872Y-71337D01*
X93908Y-71280D01*
X93940Y-71251D01*
X94001Y-71222D01*
X94115Y-71222D01*
X94169Y-71251D01*
X94640Y-71594D02*
X94580Y-71622D01*
X94465Y-71622D01*
X94412Y-71594D01*
X94390Y-71537D01*
X94419Y-71308D01*
X94454Y-71251D01*
X94515Y-71222D01*
X94630Y-71222D01*
X94683Y-71251D01*
X94705Y-71308D01*
X94697Y-71365D01*
X94405Y-71422D01*
X95008Y-71622D02*
X94955Y-71594D01*
X94933Y-71537D01*
X94997Y-71022D01*
X95322Y-71622D02*
X95269Y-71594D01*
X95247Y-71537D01*
X95312Y-71022D01*
X95783Y-71594D02*
X95722Y-71622D01*
X95608Y-71622D01*
X95555Y-71594D01*
X95533Y-71537D01*
X95562Y-71308D01*
X95597Y-71251D01*
X95658Y-71222D01*
X95772Y-71222D01*
X95826Y-71251D01*
X95847Y-71308D01*
X95840Y-71365D01*
X95547Y-71422D01*
X96522Y-71622D02*
X96597Y-71022D01*
X96744Y-71451D01*
X96997Y-71022D01*
X96922Y-71622D01*
X97465Y-71622D02*
X97505Y-71308D01*
X97483Y-71251D01*
X97430Y-71222D01*
X97315Y-71222D01*
X97255Y-71251D01*
X97469Y-71594D02*
X97408Y-71622D01*
X97265Y-71622D01*
X97212Y-71594D01*
X97190Y-71537D01*
X97197Y-71480D01*
X97233Y-71422D01*
X97294Y-71394D01*
X97437Y-71394D01*
X97497Y-71365D01*
X97751Y-71622D02*
X97801Y-71222D01*
X97787Y-71337D02*
X97822Y-71280D01*
X97855Y-71251D01*
X97915Y-71222D01*
X97972Y-71222D01*
X98383Y-71594D02*
X98322Y-71622D01*
X98208Y-71622D01*
X98155Y-71594D01*
X98130Y-71565D01*
X98108Y-71508D01*
X98130Y-71337D01*
X98165Y-71280D01*
X98197Y-71251D01*
X98258Y-71222D01*
X98372Y-71222D01*
X98426Y-71251D01*
X98637Y-71622D02*
X98712Y-71022D01*
X98894Y-71622D02*
X98933Y-71308D01*
X98912Y-71251D01*
X98858Y-71222D01*
X98772Y-71222D01*
X98712Y-71251D01*
X98680Y-71280D01*
X99412Y-71594D02*
X99351Y-71622D01*
X99237Y-71622D01*
X99183Y-71594D01*
X99162Y-71537D01*
X99190Y-71308D01*
X99226Y-71251D01*
X99287Y-71222D01*
X99401Y-71222D01*
X99455Y-71251D01*
X99476Y-71308D01*
X99469Y-71365D01*
X99176Y-71422D01*
X70972Y-70108D02*
X71172Y-70108D01*
X71258Y-70422D02*
X70972Y-70422D01*
X70972Y-69822D01*
X71258Y-69822D01*
X71458Y-70422D02*
X71772Y-70022D01*
X71458Y-70022D02*
X71772Y-70422D01*
X72001Y-70022D02*
X72001Y-70622D01*
X72001Y-70051D02*
X72058Y-70022D01*
X72172Y-70022D01*
X72230Y-70051D01*
X72258Y-70080D01*
X72287Y-70137D01*
X72287Y-70308D01*
X72258Y-70365D01*
X72230Y-70394D01*
X72172Y-70422D01*
X72058Y-70422D01*
X72001Y-70394D01*
X72801Y-70422D02*
X72801Y-70108D01*
X72772Y-70051D01*
X72715Y-70022D01*
X72601Y-70022D01*
X72544Y-70051D01*
X72801Y-70394D02*
X72744Y-70422D01*
X72601Y-70422D01*
X72544Y-70394D01*
X72515Y-70337D01*
X72515Y-70280D01*
X72544Y-70222D01*
X72601Y-70194D01*
X72744Y-70194D01*
X72801Y-70165D01*
X73087Y-70022D02*
X73087Y-70422D01*
X73087Y-70080D02*
X73115Y-70051D01*
X73172Y-70022D01*
X73258Y-70022D01*
X73315Y-70051D01*
X73344Y-70108D01*
X73344Y-70422D01*
X73601Y-70394D02*
X73658Y-70422D01*
X73772Y-70422D01*
X73829Y-70394D01*
X73858Y-70337D01*
X73858Y-70308D01*
X73829Y-70251D01*
X73772Y-70222D01*
X73687Y-70222D01*
X73629Y-70194D01*
X73601Y-70137D01*
X73601Y-70108D01*
X73629Y-70051D01*
X73687Y-70022D01*
X73772Y-70022D01*
X73829Y-70051D01*
X74115Y-70422D02*
X74115Y-70022D01*
X74115Y-69822D02*
X74087Y-69851D01*
X74115Y-69880D01*
X74144Y-69851D01*
X74115Y-69822D01*
X74115Y-69880D01*
X74487Y-70422D02*
X74429Y-70394D01*
X74401Y-70365D01*
X74372Y-70308D01*
X74372Y-70137D01*
X74401Y-70080D01*
X74429Y-70051D01*
X74487Y-70022D01*
X74572Y-70022D01*
X74629Y-70051D01*
X74658Y-70080D01*
X74687Y-70137D01*
X74687Y-70308D01*
X74658Y-70365D01*
X74629Y-70394D01*
X74572Y-70422D01*
X74487Y-70422D01*
X74944Y-70022D02*
X74944Y-70422D01*
X74944Y-70080D02*
X74972Y-70051D01*
X75029Y-70022D01*
X75115Y-70022D01*
X75172Y-70051D01*
X75201Y-70108D01*
X75201Y-70422D01*
X76144Y-70108D02*
X76229Y-70137D01*
X76258Y-70165D01*
X76287Y-70222D01*
X76287Y-70308D01*
X76258Y-70365D01*
X76229Y-70394D01*
X76172Y-70422D01*
X75944Y-70422D01*
X75944Y-69822D01*
X76144Y-69822D01*
X76201Y-69851D01*
X76229Y-69880D01*
X76258Y-69937D01*
X76258Y-69994D01*
X76229Y-70051D01*
X76201Y-70080D01*
X76144Y-70108D01*
X75944Y-70108D01*
X76629Y-70422D02*
X76572Y-70394D01*
X76544Y-70365D01*
X76515Y-70308D01*
X76515Y-70137D01*
X76544Y-70080D01*
X76572Y-70051D01*
X76629Y-70022D01*
X76715Y-70022D01*
X76772Y-70051D01*
X76801Y-70080D01*
X76829Y-70137D01*
X76829Y-70308D01*
X76801Y-70365D01*
X76772Y-70394D01*
X76715Y-70422D01*
X76629Y-70422D01*
X77344Y-70422D02*
X77344Y-70108D01*
X77315Y-70051D01*
X77258Y-70022D01*
X77144Y-70022D01*
X77087Y-70051D01*
X77344Y-70394D02*
X77287Y-70422D01*
X77144Y-70422D01*
X77087Y-70394D01*
X77058Y-70337D01*
X77058Y-70280D01*
X77087Y-70222D01*
X77144Y-70194D01*
X77287Y-70194D01*
X77344Y-70165D01*
X77629Y-70422D02*
X77629Y-70022D01*
X77629Y-70137D02*
X77658Y-70080D01*
X77687Y-70051D01*
X77744Y-70022D01*
X77801Y-70022D01*
X78258Y-70422D02*
X78258Y-69822D01*
X78258Y-70394D02*
X78201Y-70422D01*
X78087Y-70422D01*
X78029Y-70394D01*
X78001Y-70365D01*
X77972Y-70308D01*
X77972Y-70137D01*
X78001Y-70080D01*
X78029Y-70051D01*
X78087Y-70022D01*
X78201Y-70022D01*
X78258Y-70051D01*
X78915Y-70022D02*
X79144Y-70022D01*
X79001Y-70422D02*
X79001Y-69908D01*
X79029Y-69851D01*
X79087Y-69822D01*
X79144Y-69822D01*
X79429Y-70422D02*
X79372Y-70394D01*
X79344Y-70365D01*
X79315Y-70308D01*
X79315Y-70137D01*
X79344Y-70080D01*
X79372Y-70051D01*
X79429Y-70022D01*
X79515Y-70022D01*
X79572Y-70051D01*
X79601Y-70080D01*
X79629Y-70137D01*
X79629Y-70308D01*
X79601Y-70365D01*
X79572Y-70394D01*
X79515Y-70422D01*
X79429Y-70422D01*
X79887Y-70422D02*
X79887Y-70022D01*
X79887Y-70137D02*
X79915Y-70080D01*
X79944Y-70051D01*
X80001Y-70022D01*
X80058Y-70022D01*
X80629Y-70022D02*
X80858Y-70022D01*
X80715Y-69822D02*
X80715Y-70337D01*
X80744Y-70394D01*
X80801Y-70422D01*
X80858Y-70422D01*
X81058Y-70422D02*
X81058Y-69822D01*
X81315Y-70422D02*
X81315Y-70108D01*
X81287Y-70051D01*
X81229Y-70022D01*
X81144Y-70022D01*
X81087Y-70051D01*
X81058Y-70080D01*
X81829Y-70394D02*
X81772Y-70422D01*
X81658Y-70422D01*
X81601Y-70394D01*
X81572Y-70337D01*
X81572Y-70108D01*
X81601Y-70051D01*
X81658Y-70022D01*
X81772Y-70022D01*
X81829Y-70051D01*
X81858Y-70108D01*
X81858Y-70165D01*
X81572Y-70222D01*
X82487Y-69822D02*
X82829Y-69822D01*
X82658Y-70422D02*
X82658Y-69822D01*
X83258Y-70394D02*
X83201Y-70422D01*
X83087Y-70422D01*
X83029Y-70394D01*
X83001Y-70337D01*
X83001Y-70108D01*
X83029Y-70051D01*
X83087Y-70022D01*
X83201Y-70022D01*
X83258Y-70051D01*
X83287Y-70108D01*
X83287Y-70165D01*
X83001Y-70222D01*
X83487Y-70422D02*
X83801Y-70022D01*
X83487Y-70022D02*
X83801Y-70422D01*
X84287Y-70422D02*
X84287Y-70108D01*
X84258Y-70051D01*
X84201Y-70022D01*
X84087Y-70022D01*
X84029Y-70051D01*
X84287Y-70394D02*
X84229Y-70422D01*
X84087Y-70422D01*
X84029Y-70394D01*
X84001Y-70337D01*
X84001Y-70280D01*
X84029Y-70222D01*
X84087Y-70194D01*
X84229Y-70194D01*
X84287Y-70165D01*
X84544Y-70394D02*
X84601Y-70422D01*
X84715Y-70422D01*
X84772Y-70394D01*
X84801Y-70337D01*
X84801Y-70308D01*
X84772Y-70251D01*
X84715Y-70222D01*
X84629Y-70222D01*
X84572Y-70194D01*
X84544Y-70137D01*
X84544Y-70108D01*
X84572Y-70051D01*
X84629Y-70022D01*
X84715Y-70022D01*
X84772Y-70051D01*
X85515Y-70422D02*
X85515Y-69822D01*
X85801Y-70022D02*
X85801Y-70422D01*
X85801Y-70080D02*
X85829Y-70051D01*
X85887Y-70022D01*
X85972Y-70022D01*
X86029Y-70051D01*
X86058Y-70108D01*
X86058Y-70422D01*
X86315Y-70394D02*
X86372Y-70422D01*
X86487Y-70422D01*
X86544Y-70394D01*
X86572Y-70337D01*
X86572Y-70308D01*
X86544Y-70251D01*
X86487Y-70222D01*
X86401Y-70222D01*
X86344Y-70194D01*
X86315Y-70137D01*
X86315Y-70108D01*
X86344Y-70051D01*
X86401Y-70022D01*
X86487Y-70022D01*
X86544Y-70051D01*
X86744Y-70022D02*
X86972Y-70022D01*
X86829Y-69822D02*
X86829Y-70337D01*
X86858Y-70394D01*
X86915Y-70422D01*
X86972Y-70422D01*
X87172Y-70422D02*
X87172Y-70022D01*
X87172Y-70137D02*
X87201Y-70080D01*
X87229Y-70051D01*
X87287Y-70022D01*
X87344Y-70022D01*
X87801Y-70022D02*
X87801Y-70422D01*
X87544Y-70022D02*
X87544Y-70337D01*
X87572Y-70394D01*
X87629Y-70422D01*
X87715Y-70422D01*
X87772Y-70394D01*
X87801Y-70365D01*
X88087Y-70422D02*
X88087Y-70022D01*
X88087Y-70080D02*
X88115Y-70051D01*
X88172Y-70022D01*
X88258Y-70022D01*
X88315Y-70051D01*
X88344Y-70108D01*
X88344Y-70422D01*
X88344Y-70108D02*
X88372Y-70051D01*
X88429Y-70022D01*
X88515Y-70022D01*
X88572Y-70051D01*
X88601Y-70108D01*
X88601Y-70422D01*
X89115Y-70394D02*
X89058Y-70422D01*
X88944Y-70422D01*
X88887Y-70394D01*
X88858Y-70337D01*
X88858Y-70108D01*
X88887Y-70051D01*
X88944Y-70022D01*
X89058Y-70022D01*
X89115Y-70051D01*
X89144Y-70108D01*
X89144Y-70165D01*
X88858Y-70222D01*
X89401Y-70022D02*
X89401Y-70422D01*
X89401Y-70080D02*
X89429Y-70051D01*
X89487Y-70022D01*
X89572Y-70022D01*
X89629Y-70051D01*
X89658Y-70108D01*
X89658Y-70422D01*
X89858Y-70022D02*
X90087Y-70022D01*
X89944Y-69822D02*
X89944Y-70337D01*
X89972Y-70394D01*
X90029Y-70422D01*
X90087Y-70422D01*
X90258Y-70394D02*
X90315Y-70422D01*
X90429Y-70422D01*
X90487Y-70394D01*
X90515Y-70337D01*
X90515Y-70308D01*
X90487Y-70251D01*
X90429Y-70222D01*
X90344Y-70222D01*
X90287Y-70194D01*
X90258Y-70137D01*
X90258Y-70108D01*
X90287Y-70051D01*
X90344Y-70022D01*
X90429Y-70022D01*
X90487Y-70051D01*
X91144Y-69822D02*
X91487Y-69822D01*
X91315Y-70422D02*
X91315Y-69822D01*
X91687Y-70422D02*
X91687Y-69822D01*
X91887Y-70251D01*
X92087Y-69822D01*
X92087Y-70422D01*
X92629Y-70022D02*
X92629Y-70422D01*
X92487Y-69794D02*
X92344Y-70222D01*
X92715Y-70222D01*
X93287Y-70365D02*
X93258Y-70394D01*
X93172Y-70422D01*
X93115Y-70422D01*
X93029Y-70394D01*
X92972Y-70337D01*
X92944Y-70280D01*
X92915Y-70165D01*
X92915Y-70080D01*
X92944Y-69965D01*
X92972Y-69908D01*
X93029Y-69851D01*
X93115Y-69822D01*
X93172Y-69822D01*
X93258Y-69851D01*
X93287Y-69880D01*
X93858Y-70422D02*
X93515Y-70422D01*
X93687Y-70422D02*
X93687Y-69822D01*
X93629Y-69908D01*
X93572Y-69965D01*
X93515Y-69994D01*
X94087Y-69880D02*
X94115Y-69851D01*
X94172Y-69822D01*
X94315Y-69822D01*
X94372Y-69851D01*
X94401Y-69880D01*
X94429Y-69937D01*
X94429Y-69994D01*
X94401Y-70080D01*
X94058Y-70422D01*
X94429Y-70422D01*
X94629Y-69822D02*
X95001Y-69822D01*
X94801Y-70051D01*
X94887Y-70051D01*
X94944Y-70080D01*
X94972Y-70108D01*
X95001Y-70165D01*
X95001Y-70308D01*
X94972Y-70365D01*
X94944Y-70394D01*
X94887Y-70422D01*
X94715Y-70422D01*
X94658Y-70394D01*
X94629Y-70365D01*
X95572Y-69851D02*
X95515Y-69822D01*
X95430Y-69822D01*
X95344Y-69851D01*
X95287Y-69908D01*
X95258Y-69965D01*
X95230Y-70080D01*
X95230Y-70165D01*
X95258Y-70280D01*
X95287Y-70337D01*
X95344Y-70394D01*
X95430Y-70422D01*
X95487Y-70422D01*
X95572Y-70394D01*
X95601Y-70365D01*
X95601Y-70165D01*
X95487Y-70165D01*
X96601Y-70422D02*
X96315Y-70422D01*
X96315Y-69822D01*
X97058Y-70422D02*
X97058Y-70108D01*
X97030Y-70051D01*
X96972Y-70022D01*
X96858Y-70022D01*
X96801Y-70051D01*
X97058Y-70394D02*
X97001Y-70422D01*
X96858Y-70422D01*
X96801Y-70394D01*
X96772Y-70337D01*
X96772Y-70280D01*
X96801Y-70222D01*
X96858Y-70194D01*
X97001Y-70194D01*
X97058Y-70165D01*
X97601Y-70022D02*
X97601Y-70422D01*
X97344Y-70022D02*
X97344Y-70337D01*
X97372Y-70394D01*
X97429Y-70422D01*
X97515Y-70422D01*
X97572Y-70394D01*
X97601Y-70365D01*
X97887Y-70022D02*
X97887Y-70422D01*
X97887Y-70080D02*
X97915Y-70051D01*
X97972Y-70022D01*
X98058Y-70022D01*
X98115Y-70051D01*
X98144Y-70108D01*
X98144Y-70422D01*
X98687Y-70394D02*
X98629Y-70422D01*
X98515Y-70422D01*
X98458Y-70394D01*
X98429Y-70365D01*
X98401Y-70308D01*
X98401Y-70137D01*
X98429Y-70080D01*
X98458Y-70051D01*
X98515Y-70022D01*
X98629Y-70022D01*
X98687Y-70051D01*
X98944Y-70422D02*
X98944Y-69822D01*
X99201Y-70422D02*
X99201Y-70108D01*
X99172Y-70051D01*
X99115Y-70022D01*
X99029Y-70022D01*
X98972Y-70051D01*
X98944Y-70080D01*
X99487Y-70022D02*
X99487Y-70622D01*
X99487Y-70051D02*
X99544Y-70022D01*
X99658Y-70022D01*
X99715Y-70051D01*
X99744Y-70080D01*
X99772Y-70137D01*
X99772Y-70308D01*
X99744Y-70365D01*
X99715Y-70394D01*
X99658Y-70422D01*
X99544Y-70422D01*
X99487Y-70394D01*
X100287Y-70422D02*
X100287Y-70108D01*
X100258Y-70051D01*
X100201Y-70022D01*
X100087Y-70022D01*
X100029Y-70051D01*
X100287Y-70394D02*
X100229Y-70422D01*
X100087Y-70422D01*
X100029Y-70394D01*
X100001Y-70337D01*
X100001Y-70280D01*
X100029Y-70222D01*
X100087Y-70194D01*
X100229Y-70194D01*
X100287Y-70165D01*
X100829Y-70422D02*
X100829Y-69822D01*
X100829Y-70394D02*
X100772Y-70422D01*
X100658Y-70422D01*
X100601Y-70394D01*
X100572Y-70365D01*
X100544Y-70308D01*
X100544Y-70137D01*
X100572Y-70080D01*
X100601Y-70051D01*
X100658Y-70022D01*
X100772Y-70022D01*
X100829Y-70051D01*
X70230Y-69580D02*
X70230Y-77980D01*
X70230Y-71980D02*
X112230Y-71980D01*
X70230Y-69580D02*
X112230Y-69580D01*
X70230Y-74380D02*
X112230Y-74380D01*
X103430Y-75580D02*
X103430Y-77980D01*
X70230Y-76780D02*
X112230Y-76780D01*
X70230Y-75580D02*
X112230Y-75580D01*
X76830Y-75580D02*
X76830Y-76780D01*
G54D11*
X49500Y-22500D02*
X69500Y-22500D01*
X69500Y-22500D02*
X69500Y-45500D01*
X49500Y-45500D02*
G75*
G03X49500Y-45500I0J0D01*
G74*
G01*
X49499Y-45500D02*
X49500Y-45500D01*
X49500Y-45499D02*
X49500Y-45500D01*
X49500Y-45500D02*
G75*
G03X49500Y-45500I0J0D01*
G74*
G01*
X49499Y-45500D02*
X49500Y-45500D01*
X49500Y-45499D02*
X49500Y-45500D01*
X69500Y-22500D02*
X69500Y-45500D01*
X49500Y-22500D02*
X69500Y-22500D01*
X49500Y-45500D02*
X49500Y-22500D01*
X49500Y-45500D02*
X69500Y-45500D01*
M02*
