M48
;DRILL file {Pcbnew (2013-07-07 BZR 4022)-stable} date 11/26/2014 18:44:41
;FORMAT={-:-/ absolute / inch / decimal}
FMAT,2
INCH,TZ
T1C0.012
T2C0.024
T3C0.030
T4C0.032
T5C0.040
%
G90
G05
M72
T1
X5.22Y-3.615
X5.23Y-3.925
X5.235Y-2.775
X5.245Y-3.585
X5.25Y-3.25
X5.28Y-3.125
X5.285Y-3.28
X5.32Y-2.44
X5.32Y-2.55
X5.325Y-3.18
X5.365Y-3.215
X5.365Y-3.34
X5.38Y-4.14
X5.395Y-2.825
X5.395Y-2.87
X5.435Y-3.835
X5.465Y-3.865
X5.485Y-2.825
X5.485Y-2.865
X5.515Y-3.795
X5.515Y-3.84
X5.53Y-2.69
X5.54Y-4.21
X5.55Y-4.14
X5.565Y-3.33
X5.575Y-3.75
X5.58Y-3.845
X5.62Y-3.605
X5.65Y-3.58
X5.65Y-4.295
X5.66Y-3.855
X5.665Y-3.44
X5.72Y-3.25
X5.72Y-3.535
X5.72Y-4.14
X5.82Y-2.83
X5.82Y-2.87
X5.82Y-4.52
X5.84Y-4.34
X5.84Y-4.41
X5.88Y-3.155
X5.92Y-3.25
X5.99Y-3.52
X5.995Y-2.98
X5.995Y-3.025
X6.025Y-3.075
X6.05Y-4.415
X6.07Y-3.08
X6.11Y-4.415
X6.13Y-3.335
X6.2Y-2.82
X6.21Y-3.845
X6.225Y-4.1
X6.3Y-2.5
X6.31Y-2.69
X6.38Y-3.07
X6.4Y-2.5
X6.41Y-2.8553
X6.42Y-2.69
X6.445Y-3.71
X6.48Y-3.17
X6.52Y-2.42
X6.52Y-2.46
X6.52Y-2.5
X6.52Y-2.54
X6.55Y-3.39
X6.555Y-2.725
X6.59Y-3.37
X6.59Y-3.54
X6.6Y-2.86
X6.65Y-3.87
X6.71Y-4.48
X6.72Y-2.45
X6.75Y-2.3
X6.83Y-2.56
T2
X5.79Y-3.89
X5.79Y-4.03
X6.35Y-3.4913
X6.35Y-3.57
X6.35Y-3.6487
T3
X5.9Y-3.84
X6.075Y-3.84
X6.19Y-2.9
X6.435Y-4.31
X6.435Y-4.42
X6.895Y-2.885
T4
X5.05Y-3.45
X5.05Y-3.55
X5.05Y-3.65
X5.05Y-3.75
X5.05Y-3.85
X5.05Y-3.95
X5.05Y-4.05
X5.05Y-4.15
X5.05Y-4.25
X5.05Y-4.35
X5.15Y-3.45
X5.15Y-3.55
X5.15Y-3.65
X5.15Y-3.75
X5.15Y-3.85
X5.15Y-3.95
X5.15Y-4.05
X5.15Y-4.15
X5.15Y-4.25
X5.15Y-4.35
X5.44Y-2.76
X5.44Y-3.06
X5.54Y-2.76
X5.54Y-3.06
X5.64Y-2.76
X5.64Y-3.06
X5.74Y-2.76
X5.74Y-3.06
X5.84Y-2.76
X5.84Y-3.06
X5.94Y-2.76
X5.94Y-3.06
X6.75Y-3.45
X6.75Y-3.55
X6.75Y-3.65
X6.75Y-3.75
X6.75Y-3.85
X6.75Y-3.95
X6.75Y-4.05
X6.75Y-4.15
X6.75Y-4.25
X6.75Y-4.35
X6.85Y-3.45
X6.85Y-3.55
X6.85Y-3.65
X6.85Y-3.75
X6.85Y-3.85
X6.85Y-3.95
X6.85Y-4.05
X6.85Y-4.15
X6.85Y-4.25
X6.85Y-4.35
T5
X5.05Y-2.49
X5.05Y-2.59
X5.05Y-2.69
X5.05Y-2.96
X5.05Y-3.06
X5.05Y-3.16
X5.15Y-2.49
X5.15Y-2.59
X5.15Y-2.69
X5.15Y-2.96
X5.15Y-3.06
X5.15Y-3.16
X5.33Y-4.36
X5.33Y-4.46
X5.43Y-4.36
X5.43Y-4.46
X5.44Y-2.41
X5.53Y-4.36
X5.53Y-4.46
X5.54Y-2.41
X5.63Y-4.36
X5.63Y-4.46
X5.64Y-2.41
X5.73Y-4.36
X5.73Y-4.46
X5.74Y-2.41
X6.78Y-2.97
X6.78Y-3.07
X6.78Y-3.17
X6.78Y-3.27
T0
M30
