G04 (created by PCBNEW (2013-07-07 BZR 4022)-stable) date 10/4/2014 18:51:37*
%MOIN*%
G04 Gerber Fmt 3.4, Leading zero omitted, Abs format*
%FSLAX34Y34*%
G01*
G70*
G90*
G04 APERTURE LIST*
%ADD10C,0.005*%
%ADD11C,0.00629921*%
%ADD12C,0.00787402*%
%ADD13C,0.011811*%
G04 APERTURE END LIST*
G54D10*
G54D11*
X49500Y-22500D02*
X69500Y-22500D01*
X69500Y-22500D02*
X69500Y-45500D01*
X69500Y-22500D02*
X69500Y-45500D01*
X49500Y-22500D02*
X69500Y-22500D01*
X49500Y-45500D02*
X49500Y-22500D01*
X49500Y-45500D02*
X69500Y-45500D01*
G54D12*
X52140Y-36090D02*
X52260Y-36210D01*
X52260Y-36090D02*
X52140Y-36210D01*
X52240Y-39190D02*
X52360Y-39310D01*
X52360Y-39190D02*
X52240Y-39310D01*
X52290Y-27690D02*
X52410Y-27810D01*
X52410Y-27690D02*
X52290Y-27810D01*
X52390Y-35790D02*
X52510Y-35910D01*
X52510Y-35790D02*
X52390Y-35910D01*
X52440Y-32440D02*
X52560Y-32560D01*
X52560Y-32440D02*
X52440Y-32560D01*
X52740Y-31190D02*
X52860Y-31310D01*
X52860Y-31190D02*
X52740Y-31310D01*
X52790Y-32740D02*
X52910Y-32860D01*
X52910Y-32740D02*
X52790Y-32860D01*
X53140Y-24340D02*
X53260Y-24460D01*
X53260Y-24340D02*
X53140Y-24460D01*
X53140Y-25440D02*
X53260Y-25560D01*
X53260Y-25440D02*
X53140Y-25560D01*
X53190Y-31740D02*
X53310Y-31860D01*
X53310Y-31740D02*
X53190Y-31860D01*
X53590Y-32090D02*
X53710Y-32210D01*
X53710Y-32090D02*
X53590Y-32210D01*
X53590Y-33340D02*
X53710Y-33460D01*
X53710Y-33340D02*
X53590Y-33460D01*
X53740Y-41340D02*
X53860Y-41460D01*
X53860Y-41340D02*
X53740Y-41460D01*
X53890Y-28190D02*
X54010Y-28310D01*
X54010Y-28190D02*
X53890Y-28310D01*
X53890Y-28640D02*
X54010Y-28760D01*
X54010Y-28640D02*
X53890Y-28760D01*
X54290Y-38290D02*
X54410Y-38410D01*
X54410Y-38290D02*
X54290Y-38410D01*
X54590Y-38590D02*
X54710Y-38710D01*
X54710Y-38590D02*
X54590Y-38710D01*
X54790Y-28190D02*
X54910Y-28310D01*
X54910Y-28190D02*
X54790Y-28310D01*
X54790Y-28590D02*
X54910Y-28710D01*
X54910Y-28590D02*
X54790Y-28710D01*
X55090Y-37890D02*
X55210Y-38010D01*
X55210Y-37890D02*
X55090Y-38010D01*
X55090Y-38340D02*
X55210Y-38460D01*
X55210Y-38340D02*
X55090Y-38460D01*
X55240Y-26840D02*
X55360Y-26960D01*
X55360Y-26840D02*
X55240Y-26960D01*
X55340Y-42040D02*
X55460Y-42160D01*
X55460Y-42040D02*
X55340Y-42160D01*
X55440Y-41340D02*
X55560Y-41460D01*
X55560Y-41340D02*
X55440Y-41460D01*
X55590Y-33240D02*
X55710Y-33360D01*
X55710Y-33240D02*
X55590Y-33360D01*
X55690Y-37440D02*
X55810Y-37560D01*
X55810Y-37440D02*
X55690Y-37560D01*
X55740Y-38390D02*
X55860Y-38510D01*
X55860Y-38390D02*
X55740Y-38510D01*
X56140Y-35990D02*
X56260Y-36110D01*
X56260Y-35990D02*
X56140Y-36110D01*
X56440Y-35740D02*
X56560Y-35860D01*
X56560Y-35740D02*
X56440Y-35860D01*
X56440Y-42890D02*
X56560Y-43010D01*
X56560Y-42890D02*
X56440Y-43010D01*
X56540Y-38490D02*
X56660Y-38610D01*
X56660Y-38490D02*
X56540Y-38610D01*
X56590Y-34340D02*
X56710Y-34460D01*
X56710Y-34340D02*
X56590Y-34460D01*
X57140Y-32440D02*
X57260Y-32560D01*
X57260Y-32440D02*
X57140Y-32560D01*
X57140Y-35290D02*
X57260Y-35410D01*
X57260Y-35290D02*
X57140Y-35410D01*
X57140Y-41340D02*
X57260Y-41460D01*
X57260Y-41340D02*
X57140Y-41460D01*
X58140Y-28240D02*
X58260Y-28360D01*
X58260Y-28240D02*
X58140Y-28360D01*
X58140Y-28640D02*
X58260Y-28760D01*
X58260Y-28640D02*
X58140Y-28760D01*
X58140Y-45140D02*
X58260Y-45260D01*
X58260Y-45140D02*
X58140Y-45260D01*
X58340Y-43340D02*
X58460Y-43460D01*
X58460Y-43340D02*
X58340Y-43460D01*
X58340Y-44040D02*
X58460Y-44160D01*
X58460Y-44040D02*
X58340Y-44160D01*
X58740Y-31490D02*
X58860Y-31610D01*
X58860Y-31490D02*
X58740Y-31610D01*
X59140Y-32440D02*
X59260Y-32560D01*
X59260Y-32440D02*
X59140Y-32560D01*
X59840Y-35140D02*
X59960Y-35260D01*
X59960Y-35140D02*
X59840Y-35260D01*
X59890Y-29740D02*
X60010Y-29860D01*
X60010Y-29740D02*
X59890Y-29860D01*
X59890Y-30190D02*
X60010Y-30310D01*
X60010Y-30190D02*
X59890Y-30310D01*
X60190Y-30690D02*
X60310Y-30810D01*
X60310Y-30690D02*
X60190Y-30810D01*
X60440Y-44090D02*
X60560Y-44210D01*
X60560Y-44090D02*
X60440Y-44210D01*
X60640Y-30740D02*
X60760Y-30860D01*
X60760Y-30740D02*
X60640Y-30860D01*
X61040Y-44090D02*
X61160Y-44210D01*
X61160Y-44090D02*
X61040Y-44210D01*
X61240Y-33290D02*
X61360Y-33410D01*
X61360Y-33290D02*
X61240Y-33410D01*
X61940Y-28140D02*
X62060Y-28260D01*
X62060Y-28140D02*
X61940Y-28260D01*
X62040Y-38390D02*
X62160Y-38510D01*
X62160Y-38390D02*
X62040Y-38510D01*
X62190Y-40940D02*
X62310Y-41060D01*
X62310Y-40940D02*
X62190Y-41060D01*
X62940Y-24940D02*
X63060Y-25060D01*
X63060Y-24940D02*
X62940Y-25060D01*
X63040Y-26840D02*
X63160Y-26960D01*
X63160Y-26840D02*
X63040Y-26960D01*
X63740Y-30640D02*
X63860Y-30760D01*
X63860Y-30640D02*
X63740Y-30760D01*
X63940Y-24940D02*
X64060Y-25060D01*
X64060Y-24940D02*
X63940Y-25060D01*
X64040Y-28492D02*
X64160Y-28612D01*
X64160Y-28492D02*
X64040Y-28612D01*
X64140Y-26840D02*
X64260Y-26960D01*
X64260Y-26840D02*
X64140Y-26960D01*
X64390Y-37040D02*
X64510Y-37160D01*
X64510Y-37040D02*
X64390Y-37160D01*
X64740Y-31640D02*
X64860Y-31760D01*
X64860Y-31640D02*
X64740Y-31760D01*
X65140Y-24140D02*
X65260Y-24260D01*
X65260Y-24140D02*
X65140Y-24260D01*
X65140Y-24540D02*
X65260Y-24660D01*
X65260Y-24540D02*
X65140Y-24660D01*
X65140Y-24940D02*
X65260Y-25060D01*
X65260Y-24940D02*
X65140Y-25060D01*
X65140Y-25340D02*
X65260Y-25460D01*
X65260Y-25340D02*
X65140Y-25460D01*
X65440Y-33840D02*
X65560Y-33960D01*
X65560Y-33840D02*
X65440Y-33960D01*
X65490Y-27190D02*
X65610Y-27310D01*
X65610Y-27190D02*
X65490Y-27310D01*
X65840Y-33640D02*
X65960Y-33760D01*
X65960Y-33640D02*
X65840Y-33760D01*
X65840Y-35340D02*
X65960Y-35460D01*
X65960Y-35340D02*
X65840Y-35460D01*
X65940Y-28540D02*
X66060Y-28660D01*
X66060Y-28540D02*
X65940Y-28660D01*
X66440Y-38640D02*
X66560Y-38760D01*
X66560Y-38640D02*
X66440Y-38760D01*
X67040Y-44740D02*
X67160Y-44860D01*
X67160Y-44740D02*
X67040Y-44860D01*
X67140Y-24440D02*
X67260Y-24560D01*
X67260Y-24440D02*
X67140Y-24560D01*
X67440Y-22940D02*
X67560Y-23060D01*
X67560Y-22940D02*
X67440Y-23060D01*
X68240Y-25540D02*
X68360Y-25660D01*
X68360Y-25540D02*
X68240Y-25660D01*
X58018Y-38900D02*
G75*
G03X58018Y-38900I-118J0D01*
G74*
G01*
X58018Y-40300D02*
G75*
G03X58018Y-40300I-118J0D01*
G74*
G01*
X63618Y-34912D02*
G75*
G03X63618Y-34912I-118J0D01*
G74*
G01*
X63618Y-35700D02*
G75*
G03X63618Y-35700I-118J0D01*
G74*
G01*
X63618Y-36487D02*
G75*
G03X63618Y-36487I-118J0D01*
G74*
G01*
X59000Y-38250D02*
X59000Y-38550D01*
X58850Y-38400D02*
X59150Y-38400D01*
X60750Y-38250D02*
X60750Y-38550D01*
X60600Y-38400D02*
X60900Y-38400D01*
X61900Y-28850D02*
X61900Y-29150D01*
X61750Y-29000D02*
X62050Y-29000D01*
X64350Y-42950D02*
X64350Y-43250D01*
X64200Y-43100D02*
X64500Y-43100D01*
X64350Y-44050D02*
X64350Y-44350D01*
X64200Y-44200D02*
X64500Y-44200D01*
X68950Y-28700D02*
X68950Y-29000D01*
X68800Y-28850D02*
X69100Y-28850D01*
X50613Y-34613D02*
X50613Y-34386D01*
X50386Y-34386D01*
X50386Y-34613D01*
X50613Y-34613D01*
X50613Y-35613D02*
X50613Y-35386D01*
X50386Y-35386D01*
X50386Y-35613D01*
X50613Y-35613D01*
X50613Y-36613D02*
X50613Y-36386D01*
X50386Y-36386D01*
X50386Y-36613D01*
X50613Y-36613D01*
X50613Y-37613D02*
X50613Y-37386D01*
X50386Y-37386D01*
X50386Y-37613D01*
X50613Y-37613D01*
X50613Y-38613D02*
X50613Y-38386D01*
X50386Y-38386D01*
X50386Y-38613D01*
X50613Y-38613D01*
X50613Y-39613D02*
X50613Y-39386D01*
X50386Y-39386D01*
X50386Y-39613D01*
X50613Y-39613D01*
X50613Y-40613D02*
X50613Y-40386D01*
X50386Y-40386D01*
X50386Y-40613D01*
X50613Y-40613D01*
X50613Y-41613D02*
X50613Y-41386D01*
X50386Y-41386D01*
X50386Y-41613D01*
X50613Y-41613D01*
X50613Y-42613D02*
X50613Y-42386D01*
X50386Y-42386D01*
X50386Y-42613D01*
X50613Y-42613D01*
X50613Y-43613D02*
X50613Y-43386D01*
X50386Y-43386D01*
X50386Y-43613D01*
X50613Y-43613D01*
X51613Y-34613D02*
X51613Y-34386D01*
X51386Y-34386D01*
X51386Y-34613D01*
X51613Y-34613D01*
X51613Y-35613D02*
X51613Y-35386D01*
X51386Y-35386D01*
X51386Y-35613D01*
X51613Y-35613D01*
X51613Y-36613D02*
X51613Y-36386D01*
X51386Y-36386D01*
X51386Y-36613D01*
X51613Y-36613D01*
X51613Y-37613D02*
X51613Y-37386D01*
X51386Y-37386D01*
X51386Y-37613D01*
X51613Y-37613D01*
X51613Y-38613D02*
X51613Y-38386D01*
X51386Y-38386D01*
X51386Y-38613D01*
X51613Y-38613D01*
X51613Y-39613D02*
X51613Y-39386D01*
X51386Y-39386D01*
X51386Y-39613D01*
X51613Y-39613D01*
X51613Y-40613D02*
X51613Y-40386D01*
X51386Y-40386D01*
X51386Y-40613D01*
X51613Y-40613D01*
X51613Y-41613D02*
X51613Y-41386D01*
X51386Y-41386D01*
X51386Y-41613D01*
X51613Y-41613D01*
X51613Y-42613D02*
X51613Y-42386D01*
X51386Y-42386D01*
X51386Y-42613D01*
X51613Y-42613D01*
X51613Y-43613D02*
X51613Y-43386D01*
X51386Y-43386D01*
X51386Y-43613D01*
X51613Y-43613D01*
X54513Y-27713D02*
X54513Y-27486D01*
X54286Y-27486D01*
X54286Y-27713D01*
X54513Y-27713D01*
X54513Y-30713D02*
X54513Y-30486D01*
X54286Y-30486D01*
X54286Y-30713D01*
X54513Y-30713D01*
X55513Y-27713D02*
X55513Y-27486D01*
X55286Y-27486D01*
X55286Y-27713D01*
X55513Y-27713D01*
X55513Y-30713D02*
X55513Y-30486D01*
X55286Y-30486D01*
X55286Y-30713D01*
X55513Y-30713D01*
X56513Y-27713D02*
X56513Y-27486D01*
X56286Y-27486D01*
X56286Y-27713D01*
X56513Y-27713D01*
X56513Y-30713D02*
X56513Y-30486D01*
X56286Y-30486D01*
X56286Y-30713D01*
X56513Y-30713D01*
X57513Y-27713D02*
X57513Y-27486D01*
X57286Y-27486D01*
X57286Y-27713D01*
X57513Y-27713D01*
X57513Y-30713D02*
X57513Y-30486D01*
X57286Y-30486D01*
X57286Y-30713D01*
X57513Y-30713D01*
X58513Y-27713D02*
X58513Y-27486D01*
X58286Y-27486D01*
X58286Y-27713D01*
X58513Y-27713D01*
X58513Y-30713D02*
X58513Y-30486D01*
X58286Y-30486D01*
X58286Y-30713D01*
X58513Y-30713D01*
X59513Y-27713D02*
X59513Y-27486D01*
X59286Y-27486D01*
X59286Y-27713D01*
X59513Y-27713D01*
X59513Y-30713D02*
X59513Y-30486D01*
X59286Y-30486D01*
X59286Y-30713D01*
X59513Y-30713D01*
X67613Y-34613D02*
X67613Y-34386D01*
X67386Y-34386D01*
X67386Y-34613D01*
X67613Y-34613D01*
X67613Y-35613D02*
X67613Y-35386D01*
X67386Y-35386D01*
X67386Y-35613D01*
X67613Y-35613D01*
X67613Y-36613D02*
X67613Y-36386D01*
X67386Y-36386D01*
X67386Y-36613D01*
X67613Y-36613D01*
X67613Y-37613D02*
X67613Y-37386D01*
X67386Y-37386D01*
X67386Y-37613D01*
X67613Y-37613D01*
X67613Y-38613D02*
X67613Y-38386D01*
X67386Y-38386D01*
X67386Y-38613D01*
X67613Y-38613D01*
X67613Y-39613D02*
X67613Y-39386D01*
X67386Y-39386D01*
X67386Y-39613D01*
X67613Y-39613D01*
X67613Y-40613D02*
X67613Y-40386D01*
X67386Y-40386D01*
X67386Y-40613D01*
X67613Y-40613D01*
X67613Y-41613D02*
X67613Y-41386D01*
X67386Y-41386D01*
X67386Y-41613D01*
X67613Y-41613D01*
X67613Y-42613D02*
X67613Y-42386D01*
X67386Y-42386D01*
X67386Y-42613D01*
X67613Y-42613D01*
X67613Y-43613D02*
X67613Y-43386D01*
X67386Y-43386D01*
X67386Y-43613D01*
X67613Y-43613D01*
X68613Y-34613D02*
X68613Y-34386D01*
X68386Y-34386D01*
X68386Y-34613D01*
X68613Y-34613D01*
X68613Y-35613D02*
X68613Y-35386D01*
X68386Y-35386D01*
X68386Y-35613D01*
X68613Y-35613D01*
X68613Y-36613D02*
X68613Y-36386D01*
X68386Y-36386D01*
X68386Y-36613D01*
X68613Y-36613D01*
X68613Y-37613D02*
X68613Y-37386D01*
X68386Y-37386D01*
X68386Y-37613D01*
X68613Y-37613D01*
X68613Y-38613D02*
X68613Y-38386D01*
X68386Y-38386D01*
X68386Y-38613D01*
X68613Y-38613D01*
X68613Y-39613D02*
X68613Y-39386D01*
X68386Y-39386D01*
X68386Y-39613D01*
X68613Y-39613D01*
X68613Y-40613D02*
X68613Y-40386D01*
X68386Y-40386D01*
X68386Y-40613D01*
X68613Y-40613D01*
X68613Y-41613D02*
X68613Y-41386D01*
X68386Y-41386D01*
X68386Y-41613D01*
X68613Y-41613D01*
X68613Y-42613D02*
X68613Y-42386D01*
X68386Y-42386D01*
X68386Y-42613D01*
X68613Y-42613D01*
X68613Y-43613D02*
X68613Y-43386D01*
X68386Y-43386D01*
X68386Y-43613D01*
X68613Y-43613D01*
X50500Y-25100D02*
X50700Y-24900D01*
X50500Y-24700D01*
X50300Y-24900D01*
X50500Y-25100D01*
X50500Y-26100D02*
X50700Y-25900D01*
X50500Y-25700D01*
X50300Y-25900D01*
X50500Y-26100D01*
X50500Y-27100D02*
X50700Y-26900D01*
X50500Y-26700D01*
X50300Y-26900D01*
X50500Y-27100D01*
X50500Y-29800D02*
X50700Y-29600D01*
X50500Y-29400D01*
X50300Y-29600D01*
X50500Y-29800D01*
X50500Y-30800D02*
X50700Y-30600D01*
X50500Y-30400D01*
X50300Y-30600D01*
X50500Y-30800D01*
X50500Y-31800D02*
X50700Y-31600D01*
X50500Y-31400D01*
X50300Y-31600D01*
X50500Y-31800D01*
X51500Y-25100D02*
X51700Y-24900D01*
X51500Y-24700D01*
X51300Y-24900D01*
X51500Y-25100D01*
X51500Y-26100D02*
X51700Y-25900D01*
X51500Y-25700D01*
X51300Y-25900D01*
X51500Y-26100D01*
X51500Y-27100D02*
X51700Y-26900D01*
X51500Y-26700D01*
X51300Y-26900D01*
X51500Y-27100D01*
X51500Y-29800D02*
X51700Y-29600D01*
X51500Y-29400D01*
X51300Y-29600D01*
X51500Y-29800D01*
X51500Y-30800D02*
X51700Y-30600D01*
X51500Y-30400D01*
X51300Y-30600D01*
X51500Y-30800D01*
X51500Y-31800D02*
X51700Y-31600D01*
X51500Y-31400D01*
X51300Y-31600D01*
X51500Y-31800D01*
X53300Y-43800D02*
X53500Y-43600D01*
X53300Y-43400D01*
X53100Y-43600D01*
X53300Y-43800D01*
X53300Y-44800D02*
X53500Y-44600D01*
X53300Y-44400D01*
X53100Y-44600D01*
X53300Y-44800D01*
X54300Y-43800D02*
X54500Y-43600D01*
X54300Y-43400D01*
X54100Y-43600D01*
X54300Y-43800D01*
X54300Y-44800D02*
X54500Y-44600D01*
X54300Y-44400D01*
X54100Y-44600D01*
X54300Y-44800D01*
X54400Y-24300D02*
X54600Y-24100D01*
X54400Y-23900D01*
X54200Y-24100D01*
X54400Y-24300D01*
X55300Y-43800D02*
X55500Y-43600D01*
X55300Y-43400D01*
X55100Y-43600D01*
X55300Y-43800D01*
X55300Y-44800D02*
X55500Y-44600D01*
X55300Y-44400D01*
X55100Y-44600D01*
X55300Y-44800D01*
X55400Y-24300D02*
X55600Y-24100D01*
X55400Y-23900D01*
X55200Y-24100D01*
X55400Y-24300D01*
X56300Y-43800D02*
X56500Y-43600D01*
X56300Y-43400D01*
X56100Y-43600D01*
X56300Y-43800D01*
X56300Y-44800D02*
X56500Y-44600D01*
X56300Y-44400D01*
X56100Y-44600D01*
X56300Y-44800D01*
X56400Y-24300D02*
X56600Y-24100D01*
X56400Y-23900D01*
X56200Y-24100D01*
X56400Y-24300D01*
X57300Y-43800D02*
X57500Y-43600D01*
X57300Y-43400D01*
X57100Y-43600D01*
X57300Y-43800D01*
X57300Y-44800D02*
X57500Y-44600D01*
X57300Y-44400D01*
X57100Y-44600D01*
X57300Y-44800D01*
X57400Y-24300D02*
X57600Y-24100D01*
X57400Y-23900D01*
X57200Y-24100D01*
X57400Y-24300D01*
X67800Y-29900D02*
X68000Y-29700D01*
X67800Y-29500D01*
X67600Y-29700D01*
X67800Y-29900D01*
X67800Y-30900D02*
X68000Y-30700D01*
X67800Y-30500D01*
X67600Y-30700D01*
X67800Y-30900D01*
X67800Y-31900D02*
X68000Y-31700D01*
X67800Y-31500D01*
X67600Y-31700D01*
X67800Y-31900D01*
X67800Y-32900D02*
X68000Y-32700D01*
X67800Y-32500D01*
X67600Y-32700D01*
X67800Y-32900D01*
G54D13*
X50537Y-47308D02*
X50537Y-46127D01*
X50818Y-46127D01*
X50987Y-46183D01*
X51099Y-46296D01*
X51155Y-46408D01*
X51212Y-46633D01*
X51212Y-46802D01*
X51155Y-47027D01*
X51099Y-47140D01*
X50987Y-47252D01*
X50818Y-47308D01*
X50537Y-47308D01*
X51718Y-47308D02*
X51718Y-46521D01*
X51718Y-46746D02*
X51774Y-46633D01*
X51830Y-46577D01*
X51943Y-46521D01*
X52055Y-46521D01*
X52449Y-47308D02*
X52449Y-46521D01*
X52449Y-46127D02*
X52393Y-46183D01*
X52449Y-46240D01*
X52505Y-46183D01*
X52449Y-46127D01*
X52449Y-46240D01*
X53180Y-47308D02*
X53068Y-47252D01*
X53011Y-47140D01*
X53011Y-46127D01*
X53799Y-47308D02*
X53686Y-47252D01*
X53630Y-47140D01*
X53630Y-46127D01*
X55149Y-47308D02*
X55149Y-46127D01*
X55542Y-46971D01*
X55936Y-46127D01*
X55936Y-47308D01*
X57005Y-47308D02*
X57005Y-46690D01*
X56948Y-46577D01*
X56836Y-46521D01*
X56611Y-46521D01*
X56498Y-46577D01*
X57005Y-47252D02*
X56892Y-47308D01*
X56611Y-47308D01*
X56498Y-47252D01*
X56442Y-47140D01*
X56442Y-47027D01*
X56498Y-46915D01*
X56611Y-46858D01*
X56892Y-46858D01*
X57005Y-46802D01*
X57567Y-46521D02*
X57567Y-47702D01*
X57567Y-46577D02*
X57679Y-46521D01*
X57904Y-46521D01*
X58017Y-46577D01*
X58073Y-46633D01*
X58129Y-46746D01*
X58129Y-47083D01*
X58073Y-47196D01*
X58017Y-47252D01*
X57904Y-47308D01*
X57679Y-47308D01*
X57567Y-47252D01*
X58636Y-47196D02*
X58692Y-47252D01*
X58636Y-47308D01*
X58579Y-47252D01*
X58636Y-47196D01*
X58636Y-47308D01*
X58636Y-46577D02*
X58692Y-46633D01*
X58636Y-46690D01*
X58579Y-46633D01*
X58636Y-46577D01*
X58636Y-46690D01*
X49348Y-49251D02*
X49468Y-49371D01*
X49468Y-49251D02*
X49348Y-49371D01*
X50762Y-48607D02*
X50874Y-48607D01*
X50987Y-48664D01*
X51043Y-48720D01*
X51099Y-48832D01*
X51155Y-49057D01*
X51155Y-49339D01*
X51099Y-49564D01*
X51043Y-49676D01*
X50987Y-49732D01*
X50874Y-49789D01*
X50762Y-49789D01*
X50649Y-49732D01*
X50593Y-49676D01*
X50537Y-49564D01*
X50480Y-49339D01*
X50480Y-49057D01*
X50537Y-48832D01*
X50593Y-48720D01*
X50649Y-48664D01*
X50762Y-48607D01*
X51661Y-49676D02*
X51718Y-49732D01*
X51661Y-49789D01*
X51605Y-49732D01*
X51661Y-49676D01*
X51661Y-49789D01*
X52111Y-48607D02*
X52843Y-48607D01*
X52449Y-49057D01*
X52618Y-49057D01*
X52730Y-49114D01*
X52786Y-49170D01*
X52843Y-49282D01*
X52843Y-49564D01*
X52786Y-49676D01*
X52730Y-49732D01*
X52618Y-49789D01*
X52280Y-49789D01*
X52168Y-49732D01*
X52111Y-49676D01*
X53574Y-48607D02*
X53686Y-48607D01*
X53799Y-48664D01*
X53855Y-48720D01*
X53911Y-48832D01*
X53967Y-49057D01*
X53967Y-49339D01*
X53911Y-49564D01*
X53855Y-49676D01*
X53799Y-49732D01*
X53686Y-49789D01*
X53574Y-49789D01*
X53461Y-49732D01*
X53405Y-49676D01*
X53349Y-49564D01*
X53293Y-49339D01*
X53293Y-49057D01*
X53349Y-48832D01*
X53405Y-48720D01*
X53461Y-48664D01*
X53574Y-48607D01*
X54474Y-49789D02*
X54474Y-49001D01*
X54474Y-49114D02*
X54530Y-49057D01*
X54642Y-49001D01*
X54811Y-49001D01*
X54924Y-49057D01*
X54980Y-49170D01*
X54980Y-49789D01*
X54980Y-49170D02*
X55036Y-49057D01*
X55149Y-49001D01*
X55317Y-49001D01*
X55430Y-49057D01*
X55486Y-49170D01*
X55486Y-49789D01*
X56048Y-49789D02*
X56048Y-49001D01*
X56048Y-49114D02*
X56105Y-49057D01*
X56217Y-49001D01*
X56386Y-49001D01*
X56498Y-49057D01*
X56555Y-49170D01*
X56555Y-49789D01*
X56555Y-49170D02*
X56611Y-49057D01*
X56723Y-49001D01*
X56892Y-49001D01*
X57005Y-49057D01*
X57061Y-49170D01*
X57061Y-49789D01*
X59367Y-48551D02*
X58354Y-50070D01*
X60885Y-48607D02*
X60998Y-48607D01*
X61110Y-48664D01*
X61167Y-48720D01*
X61223Y-48832D01*
X61279Y-49057D01*
X61279Y-49339D01*
X61223Y-49564D01*
X61167Y-49676D01*
X61110Y-49732D01*
X60998Y-49789D01*
X60885Y-49789D01*
X60773Y-49732D01*
X60717Y-49676D01*
X60660Y-49564D01*
X60604Y-49339D01*
X60604Y-49057D01*
X60660Y-48832D01*
X60717Y-48720D01*
X60773Y-48664D01*
X60885Y-48607D01*
X61785Y-49676D02*
X61841Y-49732D01*
X61785Y-49789D01*
X61729Y-49732D01*
X61785Y-49676D01*
X61785Y-49789D01*
X62573Y-48607D02*
X62685Y-48607D01*
X62798Y-48664D01*
X62854Y-48720D01*
X62910Y-48832D01*
X62966Y-49057D01*
X62966Y-49339D01*
X62910Y-49564D01*
X62854Y-49676D01*
X62798Y-49732D01*
X62685Y-49789D01*
X62573Y-49789D01*
X62460Y-49732D01*
X62404Y-49676D01*
X62348Y-49564D01*
X62291Y-49339D01*
X62291Y-49057D01*
X62348Y-48832D01*
X62404Y-48720D01*
X62460Y-48664D01*
X62573Y-48607D01*
X64091Y-49789D02*
X63416Y-49789D01*
X63754Y-49789D02*
X63754Y-48607D01*
X63641Y-48776D01*
X63529Y-48889D01*
X63416Y-48945D01*
X64541Y-48720D02*
X64597Y-48664D01*
X64710Y-48607D01*
X64991Y-48607D01*
X65104Y-48664D01*
X65160Y-48720D01*
X65216Y-48832D01*
X65216Y-48945D01*
X65160Y-49114D01*
X64485Y-49789D01*
X65216Y-49789D01*
X65666Y-48607D02*
X65666Y-48832D01*
X66116Y-48607D02*
X66116Y-48832D01*
X67859Y-50239D02*
X67803Y-50182D01*
X67691Y-50014D01*
X67634Y-49901D01*
X67578Y-49732D01*
X67522Y-49451D01*
X67522Y-49226D01*
X67578Y-48945D01*
X67634Y-48776D01*
X67691Y-48664D01*
X67803Y-48495D01*
X67859Y-48439D01*
X68197Y-48607D02*
X68984Y-48607D01*
X68478Y-49789D01*
X69997Y-48607D02*
X69434Y-48607D01*
X69378Y-49170D01*
X69434Y-49114D01*
X69547Y-49057D01*
X69828Y-49057D01*
X69940Y-49114D01*
X69997Y-49170D01*
X70053Y-49282D01*
X70053Y-49564D01*
X69997Y-49676D01*
X69940Y-49732D01*
X69828Y-49789D01*
X69547Y-49789D01*
X69434Y-49732D01*
X69378Y-49676D01*
X71459Y-49789D02*
X71459Y-48607D01*
X71965Y-49789D02*
X71965Y-49170D01*
X71909Y-49057D01*
X71796Y-49001D01*
X71628Y-49001D01*
X71515Y-49057D01*
X71459Y-49114D01*
X72696Y-49789D02*
X72584Y-49732D01*
X72528Y-49676D01*
X72471Y-49564D01*
X72471Y-49226D01*
X72528Y-49114D01*
X72584Y-49057D01*
X72696Y-49001D01*
X72865Y-49001D01*
X72978Y-49057D01*
X73034Y-49114D01*
X73090Y-49226D01*
X73090Y-49564D01*
X73034Y-49676D01*
X72978Y-49732D01*
X72865Y-49789D01*
X72696Y-49789D01*
X73765Y-49789D02*
X73652Y-49732D01*
X73596Y-49620D01*
X73596Y-48607D01*
X74665Y-49732D02*
X74552Y-49789D01*
X74327Y-49789D01*
X74215Y-49732D01*
X74159Y-49620D01*
X74159Y-49170D01*
X74215Y-49057D01*
X74327Y-49001D01*
X74552Y-49001D01*
X74665Y-49057D01*
X74721Y-49170D01*
X74721Y-49282D01*
X74159Y-49395D01*
X75171Y-49732D02*
X75284Y-49789D01*
X75508Y-49789D01*
X75621Y-49732D01*
X75677Y-49620D01*
X75677Y-49564D01*
X75621Y-49451D01*
X75508Y-49395D01*
X75340Y-49395D01*
X75227Y-49339D01*
X75171Y-49226D01*
X75171Y-49170D01*
X75227Y-49057D01*
X75340Y-49001D01*
X75508Y-49001D01*
X75621Y-49057D01*
X76071Y-50239D02*
X76127Y-50182D01*
X76240Y-50014D01*
X76296Y-49901D01*
X76352Y-49732D01*
X76408Y-49451D01*
X76408Y-49226D01*
X76352Y-48945D01*
X76296Y-48776D01*
X76240Y-48664D01*
X76127Y-48495D01*
X76071Y-48439D01*
G54D12*
X49468Y-50870D02*
G75*
G03X49468Y-50870I-118J0D01*
G74*
G01*
G54D13*
X50762Y-50167D02*
X50874Y-50167D01*
X50987Y-50223D01*
X51043Y-50279D01*
X51099Y-50392D01*
X51155Y-50616D01*
X51155Y-50898D01*
X51099Y-51123D01*
X51043Y-51235D01*
X50987Y-51291D01*
X50874Y-51348D01*
X50762Y-51348D01*
X50649Y-51291D01*
X50593Y-51235D01*
X50537Y-51123D01*
X50480Y-50898D01*
X50480Y-50616D01*
X50537Y-50392D01*
X50593Y-50279D01*
X50649Y-50223D01*
X50762Y-50167D01*
X51661Y-51235D02*
X51718Y-51291D01*
X51661Y-51348D01*
X51605Y-51291D01*
X51661Y-51235D01*
X51661Y-51348D01*
X52730Y-50167D02*
X52505Y-50167D01*
X52393Y-50223D01*
X52336Y-50279D01*
X52224Y-50448D01*
X52168Y-50673D01*
X52168Y-51123D01*
X52224Y-51235D01*
X52280Y-51291D01*
X52393Y-51348D01*
X52618Y-51348D01*
X52730Y-51291D01*
X52786Y-51235D01*
X52843Y-51123D01*
X52843Y-50841D01*
X52786Y-50729D01*
X52730Y-50673D01*
X52618Y-50616D01*
X52393Y-50616D01*
X52280Y-50673D01*
X52224Y-50729D01*
X52168Y-50841D01*
X53574Y-50167D02*
X53686Y-50167D01*
X53799Y-50223D01*
X53855Y-50279D01*
X53911Y-50392D01*
X53967Y-50616D01*
X53967Y-50898D01*
X53911Y-51123D01*
X53855Y-51235D01*
X53799Y-51291D01*
X53686Y-51348D01*
X53574Y-51348D01*
X53461Y-51291D01*
X53405Y-51235D01*
X53349Y-51123D01*
X53293Y-50898D01*
X53293Y-50616D01*
X53349Y-50392D01*
X53405Y-50279D01*
X53461Y-50223D01*
X53574Y-50167D01*
X54474Y-51348D02*
X54474Y-50560D01*
X54474Y-50673D02*
X54530Y-50616D01*
X54642Y-50560D01*
X54811Y-50560D01*
X54924Y-50616D01*
X54980Y-50729D01*
X54980Y-51348D01*
X54980Y-50729D02*
X55036Y-50616D01*
X55149Y-50560D01*
X55317Y-50560D01*
X55430Y-50616D01*
X55486Y-50729D01*
X55486Y-51348D01*
X56048Y-51348D02*
X56048Y-50560D01*
X56048Y-50673D02*
X56105Y-50616D01*
X56217Y-50560D01*
X56386Y-50560D01*
X56498Y-50616D01*
X56555Y-50729D01*
X56555Y-51348D01*
X56555Y-50729D02*
X56611Y-50616D01*
X56723Y-50560D01*
X56892Y-50560D01*
X57005Y-50616D01*
X57061Y-50729D01*
X57061Y-51348D01*
X59367Y-50110D02*
X58354Y-51629D01*
X60885Y-50167D02*
X60998Y-50167D01*
X61110Y-50223D01*
X61167Y-50279D01*
X61223Y-50392D01*
X61279Y-50616D01*
X61279Y-50898D01*
X61223Y-51123D01*
X61167Y-51235D01*
X61110Y-51291D01*
X60998Y-51348D01*
X60885Y-51348D01*
X60773Y-51291D01*
X60717Y-51235D01*
X60660Y-51123D01*
X60604Y-50898D01*
X60604Y-50616D01*
X60660Y-50392D01*
X60717Y-50279D01*
X60773Y-50223D01*
X60885Y-50167D01*
X61785Y-51235D02*
X61841Y-51291D01*
X61785Y-51348D01*
X61729Y-51291D01*
X61785Y-51235D01*
X61785Y-51348D01*
X62573Y-50167D02*
X62685Y-50167D01*
X62798Y-50223D01*
X62854Y-50279D01*
X62910Y-50392D01*
X62966Y-50616D01*
X62966Y-50898D01*
X62910Y-51123D01*
X62854Y-51235D01*
X62798Y-51291D01*
X62685Y-51348D01*
X62573Y-51348D01*
X62460Y-51291D01*
X62404Y-51235D01*
X62348Y-51123D01*
X62291Y-50898D01*
X62291Y-50616D01*
X62348Y-50392D01*
X62404Y-50279D01*
X62460Y-50223D01*
X62573Y-50167D01*
X63416Y-50279D02*
X63473Y-50223D01*
X63585Y-50167D01*
X63866Y-50167D01*
X63979Y-50223D01*
X64035Y-50279D01*
X64091Y-50392D01*
X64091Y-50504D01*
X64035Y-50673D01*
X63360Y-51348D01*
X64091Y-51348D01*
X65104Y-50560D02*
X65104Y-51348D01*
X64822Y-50110D02*
X64541Y-50954D01*
X65272Y-50954D01*
X65666Y-50167D02*
X65666Y-50392D01*
X66116Y-50167D02*
X66116Y-50392D01*
X67859Y-51798D02*
X67803Y-51741D01*
X67691Y-51573D01*
X67634Y-51460D01*
X67578Y-51291D01*
X67522Y-51010D01*
X67522Y-50785D01*
X67578Y-50504D01*
X67634Y-50335D01*
X67691Y-50223D01*
X67803Y-50054D01*
X67859Y-49998D01*
X68872Y-50167D02*
X68309Y-50167D01*
X68253Y-50729D01*
X68309Y-50673D01*
X68422Y-50616D01*
X68703Y-50616D01*
X68816Y-50673D01*
X68872Y-50729D01*
X68928Y-50841D01*
X68928Y-51123D01*
X68872Y-51235D01*
X68816Y-51291D01*
X68703Y-51348D01*
X68422Y-51348D01*
X68309Y-51291D01*
X68253Y-51235D01*
X70334Y-51348D02*
X70334Y-50167D01*
X70840Y-51348D02*
X70840Y-50729D01*
X70784Y-50616D01*
X70672Y-50560D01*
X70503Y-50560D01*
X70390Y-50616D01*
X70334Y-50673D01*
X71571Y-51348D02*
X71459Y-51291D01*
X71403Y-51235D01*
X71347Y-51123D01*
X71347Y-50785D01*
X71403Y-50673D01*
X71459Y-50616D01*
X71571Y-50560D01*
X71740Y-50560D01*
X71853Y-50616D01*
X71909Y-50673D01*
X71965Y-50785D01*
X71965Y-51123D01*
X71909Y-51235D01*
X71853Y-51291D01*
X71740Y-51348D01*
X71571Y-51348D01*
X72640Y-51348D02*
X72528Y-51291D01*
X72471Y-51179D01*
X72471Y-50167D01*
X73540Y-51291D02*
X73428Y-51348D01*
X73203Y-51348D01*
X73090Y-51291D01*
X73034Y-51179D01*
X73034Y-50729D01*
X73090Y-50616D01*
X73203Y-50560D01*
X73428Y-50560D01*
X73540Y-50616D01*
X73596Y-50729D01*
X73596Y-50841D01*
X73034Y-50954D01*
X74046Y-51291D02*
X74159Y-51348D01*
X74384Y-51348D01*
X74496Y-51291D01*
X74552Y-51179D01*
X74552Y-51123D01*
X74496Y-51010D01*
X74384Y-50954D01*
X74215Y-50954D01*
X74102Y-50898D01*
X74046Y-50785D01*
X74046Y-50729D01*
X74102Y-50616D01*
X74215Y-50560D01*
X74384Y-50560D01*
X74496Y-50616D01*
X74946Y-51798D02*
X75002Y-51741D01*
X75115Y-51573D01*
X75171Y-51460D01*
X75227Y-51291D01*
X75284Y-51010D01*
X75284Y-50785D01*
X75227Y-50504D01*
X75171Y-50335D01*
X75115Y-50223D01*
X75002Y-50054D01*
X74946Y-49998D01*
X49318Y-52279D02*
X49318Y-52579D01*
X49168Y-52429D02*
X49468Y-52429D01*
X50762Y-51726D02*
X50874Y-51726D01*
X50987Y-51782D01*
X51043Y-51838D01*
X51099Y-51951D01*
X51155Y-52176D01*
X51155Y-52457D01*
X51099Y-52682D01*
X51043Y-52794D01*
X50987Y-52850D01*
X50874Y-52907D01*
X50762Y-52907D01*
X50649Y-52850D01*
X50593Y-52794D01*
X50537Y-52682D01*
X50480Y-52457D01*
X50480Y-52176D01*
X50537Y-51951D01*
X50593Y-51838D01*
X50649Y-51782D01*
X50762Y-51726D01*
X51661Y-52794D02*
X51718Y-52850D01*
X51661Y-52907D01*
X51605Y-52850D01*
X51661Y-52794D01*
X51661Y-52907D01*
X52111Y-51726D02*
X52899Y-51726D01*
X52393Y-52907D01*
X53855Y-51726D02*
X53630Y-51726D01*
X53517Y-51782D01*
X53461Y-51838D01*
X53349Y-52007D01*
X53293Y-52232D01*
X53293Y-52682D01*
X53349Y-52794D01*
X53405Y-52850D01*
X53517Y-52907D01*
X53742Y-52907D01*
X53855Y-52850D01*
X53911Y-52794D01*
X53967Y-52682D01*
X53967Y-52401D01*
X53911Y-52288D01*
X53855Y-52232D01*
X53742Y-52176D01*
X53517Y-52176D01*
X53405Y-52232D01*
X53349Y-52288D01*
X53293Y-52401D01*
X54474Y-52907D02*
X54474Y-52119D01*
X54474Y-52232D02*
X54530Y-52176D01*
X54642Y-52119D01*
X54811Y-52119D01*
X54924Y-52176D01*
X54980Y-52288D01*
X54980Y-52907D01*
X54980Y-52288D02*
X55036Y-52176D01*
X55149Y-52119D01*
X55317Y-52119D01*
X55430Y-52176D01*
X55486Y-52288D01*
X55486Y-52907D01*
X56048Y-52907D02*
X56048Y-52119D01*
X56048Y-52232D02*
X56105Y-52176D01*
X56217Y-52119D01*
X56386Y-52119D01*
X56498Y-52176D01*
X56555Y-52288D01*
X56555Y-52907D01*
X56555Y-52288D02*
X56611Y-52176D01*
X56723Y-52119D01*
X56892Y-52119D01*
X57005Y-52176D01*
X57061Y-52288D01*
X57061Y-52907D01*
X59367Y-51669D02*
X58354Y-53188D01*
X60885Y-51726D02*
X60998Y-51726D01*
X61110Y-51782D01*
X61167Y-51838D01*
X61223Y-51951D01*
X61279Y-52176D01*
X61279Y-52457D01*
X61223Y-52682D01*
X61167Y-52794D01*
X61110Y-52850D01*
X60998Y-52907D01*
X60885Y-52907D01*
X60773Y-52850D01*
X60717Y-52794D01*
X60660Y-52682D01*
X60604Y-52457D01*
X60604Y-52176D01*
X60660Y-51951D01*
X60717Y-51838D01*
X60773Y-51782D01*
X60885Y-51726D01*
X61785Y-52794D02*
X61841Y-52850D01*
X61785Y-52907D01*
X61729Y-52850D01*
X61785Y-52794D01*
X61785Y-52907D01*
X62573Y-51726D02*
X62685Y-51726D01*
X62798Y-51782D01*
X62854Y-51838D01*
X62910Y-51951D01*
X62966Y-52176D01*
X62966Y-52457D01*
X62910Y-52682D01*
X62854Y-52794D01*
X62798Y-52850D01*
X62685Y-52907D01*
X62573Y-52907D01*
X62460Y-52850D01*
X62404Y-52794D01*
X62348Y-52682D01*
X62291Y-52457D01*
X62291Y-52176D01*
X62348Y-51951D01*
X62404Y-51838D01*
X62460Y-51782D01*
X62573Y-51726D01*
X63360Y-51726D02*
X64091Y-51726D01*
X63697Y-52176D01*
X63866Y-52176D01*
X63979Y-52232D01*
X64035Y-52288D01*
X64091Y-52401D01*
X64091Y-52682D01*
X64035Y-52794D01*
X63979Y-52850D01*
X63866Y-52907D01*
X63529Y-52907D01*
X63416Y-52850D01*
X63360Y-52794D01*
X64822Y-51726D02*
X64935Y-51726D01*
X65047Y-51782D01*
X65104Y-51838D01*
X65160Y-51951D01*
X65216Y-52176D01*
X65216Y-52457D01*
X65160Y-52682D01*
X65104Y-52794D01*
X65047Y-52850D01*
X64935Y-52907D01*
X64822Y-52907D01*
X64710Y-52850D01*
X64654Y-52794D01*
X64597Y-52682D01*
X64541Y-52457D01*
X64541Y-52176D01*
X64597Y-51951D01*
X64654Y-51838D01*
X64710Y-51782D01*
X64822Y-51726D01*
X65666Y-51726D02*
X65666Y-51951D01*
X66116Y-51726D02*
X66116Y-51951D01*
X67859Y-53357D02*
X67803Y-53300D01*
X67691Y-53132D01*
X67634Y-53019D01*
X67578Y-52850D01*
X67522Y-52569D01*
X67522Y-52344D01*
X67578Y-52063D01*
X67634Y-51894D01*
X67691Y-51782D01*
X67803Y-51613D01*
X67859Y-51557D01*
X68816Y-51726D02*
X68591Y-51726D01*
X68478Y-51782D01*
X68422Y-51838D01*
X68309Y-52007D01*
X68253Y-52232D01*
X68253Y-52682D01*
X68309Y-52794D01*
X68366Y-52850D01*
X68478Y-52907D01*
X68703Y-52907D01*
X68816Y-52850D01*
X68872Y-52794D01*
X68928Y-52682D01*
X68928Y-52401D01*
X68872Y-52288D01*
X68816Y-52232D01*
X68703Y-52176D01*
X68478Y-52176D01*
X68366Y-52232D01*
X68309Y-52288D01*
X68253Y-52401D01*
X70334Y-52907D02*
X70334Y-51726D01*
X70840Y-52907D02*
X70840Y-52288D01*
X70784Y-52176D01*
X70672Y-52119D01*
X70503Y-52119D01*
X70390Y-52176D01*
X70334Y-52232D01*
X71571Y-52907D02*
X71459Y-52850D01*
X71403Y-52794D01*
X71347Y-52682D01*
X71347Y-52344D01*
X71403Y-52232D01*
X71459Y-52176D01*
X71571Y-52119D01*
X71740Y-52119D01*
X71853Y-52176D01*
X71909Y-52232D01*
X71965Y-52344D01*
X71965Y-52682D01*
X71909Y-52794D01*
X71853Y-52850D01*
X71740Y-52907D01*
X71571Y-52907D01*
X72640Y-52907D02*
X72528Y-52850D01*
X72471Y-52738D01*
X72471Y-51726D01*
X73540Y-52850D02*
X73428Y-52907D01*
X73203Y-52907D01*
X73090Y-52850D01*
X73034Y-52738D01*
X73034Y-52288D01*
X73090Y-52176D01*
X73203Y-52119D01*
X73428Y-52119D01*
X73540Y-52176D01*
X73596Y-52288D01*
X73596Y-52401D01*
X73034Y-52513D01*
X74046Y-52850D02*
X74159Y-52907D01*
X74384Y-52907D01*
X74496Y-52850D01*
X74552Y-52738D01*
X74552Y-52682D01*
X74496Y-52569D01*
X74384Y-52513D01*
X74215Y-52513D01*
X74102Y-52457D01*
X74046Y-52344D01*
X74046Y-52288D01*
X74102Y-52176D01*
X74215Y-52119D01*
X74384Y-52119D01*
X74496Y-52176D01*
X74946Y-53357D02*
X75002Y-53300D01*
X75115Y-53132D01*
X75171Y-53019D01*
X75227Y-52850D01*
X75284Y-52569D01*
X75284Y-52344D01*
X75227Y-52063D01*
X75171Y-51894D01*
X75115Y-51782D01*
X75002Y-51613D01*
X74946Y-51557D01*
G54D12*
X49421Y-54101D02*
X49421Y-53875D01*
X49195Y-53875D01*
X49195Y-54101D01*
X49421Y-54101D01*
G54D13*
X50762Y-53285D02*
X50874Y-53285D01*
X50987Y-53341D01*
X51043Y-53397D01*
X51099Y-53510D01*
X51155Y-53735D01*
X51155Y-54016D01*
X51099Y-54241D01*
X51043Y-54353D01*
X50987Y-54410D01*
X50874Y-54466D01*
X50762Y-54466D01*
X50649Y-54410D01*
X50593Y-54353D01*
X50537Y-54241D01*
X50480Y-54016D01*
X50480Y-53735D01*
X50537Y-53510D01*
X50593Y-53397D01*
X50649Y-53341D01*
X50762Y-53285D01*
X51661Y-54353D02*
X51718Y-54410D01*
X51661Y-54466D01*
X51605Y-54410D01*
X51661Y-54353D01*
X51661Y-54466D01*
X52393Y-53791D02*
X52280Y-53735D01*
X52224Y-53678D01*
X52168Y-53566D01*
X52168Y-53510D01*
X52224Y-53397D01*
X52280Y-53341D01*
X52393Y-53285D01*
X52618Y-53285D01*
X52730Y-53341D01*
X52786Y-53397D01*
X52843Y-53510D01*
X52843Y-53566D01*
X52786Y-53678D01*
X52730Y-53735D01*
X52618Y-53791D01*
X52393Y-53791D01*
X52280Y-53847D01*
X52224Y-53903D01*
X52168Y-54016D01*
X52168Y-54241D01*
X52224Y-54353D01*
X52280Y-54410D01*
X52393Y-54466D01*
X52618Y-54466D01*
X52730Y-54410D01*
X52786Y-54353D01*
X52843Y-54241D01*
X52843Y-54016D01*
X52786Y-53903D01*
X52730Y-53847D01*
X52618Y-53791D01*
X53967Y-54466D02*
X53293Y-54466D01*
X53630Y-54466D02*
X53630Y-53285D01*
X53517Y-53453D01*
X53405Y-53566D01*
X53293Y-53622D01*
X54474Y-54466D02*
X54474Y-53678D01*
X54474Y-53791D02*
X54530Y-53735D01*
X54642Y-53678D01*
X54811Y-53678D01*
X54924Y-53735D01*
X54980Y-53847D01*
X54980Y-54466D01*
X54980Y-53847D02*
X55036Y-53735D01*
X55149Y-53678D01*
X55317Y-53678D01*
X55430Y-53735D01*
X55486Y-53847D01*
X55486Y-54466D01*
X56048Y-54466D02*
X56048Y-53678D01*
X56048Y-53791D02*
X56105Y-53735D01*
X56217Y-53678D01*
X56386Y-53678D01*
X56498Y-53735D01*
X56555Y-53847D01*
X56555Y-54466D01*
X56555Y-53847D02*
X56611Y-53735D01*
X56723Y-53678D01*
X56892Y-53678D01*
X57005Y-53735D01*
X57061Y-53847D01*
X57061Y-54466D01*
X59367Y-53228D02*
X58354Y-54747D01*
X60885Y-53285D02*
X60998Y-53285D01*
X61110Y-53341D01*
X61167Y-53397D01*
X61223Y-53510D01*
X61279Y-53735D01*
X61279Y-54016D01*
X61223Y-54241D01*
X61167Y-54353D01*
X61110Y-54410D01*
X60998Y-54466D01*
X60885Y-54466D01*
X60773Y-54410D01*
X60717Y-54353D01*
X60660Y-54241D01*
X60604Y-54016D01*
X60604Y-53735D01*
X60660Y-53510D01*
X60717Y-53397D01*
X60773Y-53341D01*
X60885Y-53285D01*
X61785Y-54353D02*
X61841Y-54410D01*
X61785Y-54466D01*
X61729Y-54410D01*
X61785Y-54353D01*
X61785Y-54466D01*
X62573Y-53285D02*
X62685Y-53285D01*
X62798Y-53341D01*
X62854Y-53397D01*
X62910Y-53510D01*
X62966Y-53735D01*
X62966Y-54016D01*
X62910Y-54241D01*
X62854Y-54353D01*
X62798Y-54410D01*
X62685Y-54466D01*
X62573Y-54466D01*
X62460Y-54410D01*
X62404Y-54353D01*
X62348Y-54241D01*
X62291Y-54016D01*
X62291Y-53735D01*
X62348Y-53510D01*
X62404Y-53397D01*
X62460Y-53341D01*
X62573Y-53285D01*
X63360Y-53285D02*
X64091Y-53285D01*
X63697Y-53735D01*
X63866Y-53735D01*
X63979Y-53791D01*
X64035Y-53847D01*
X64091Y-53960D01*
X64091Y-54241D01*
X64035Y-54353D01*
X63979Y-54410D01*
X63866Y-54466D01*
X63529Y-54466D01*
X63416Y-54410D01*
X63360Y-54353D01*
X64541Y-53397D02*
X64597Y-53341D01*
X64710Y-53285D01*
X64991Y-53285D01*
X65104Y-53341D01*
X65160Y-53397D01*
X65216Y-53510D01*
X65216Y-53622D01*
X65160Y-53791D01*
X64485Y-54466D01*
X65216Y-54466D01*
X65666Y-53285D02*
X65666Y-53510D01*
X66116Y-53285D02*
X66116Y-53510D01*
X67859Y-54916D02*
X67803Y-54859D01*
X67691Y-54691D01*
X67634Y-54578D01*
X67578Y-54410D01*
X67522Y-54128D01*
X67522Y-53903D01*
X67578Y-53622D01*
X67634Y-53453D01*
X67691Y-53341D01*
X67803Y-53172D01*
X67859Y-53116D01*
X68872Y-53285D02*
X68309Y-53285D01*
X68253Y-53847D01*
X68309Y-53791D01*
X68422Y-53735D01*
X68703Y-53735D01*
X68816Y-53791D01*
X68872Y-53847D01*
X68928Y-53960D01*
X68928Y-54241D01*
X68872Y-54353D01*
X68816Y-54410D01*
X68703Y-54466D01*
X68422Y-54466D01*
X68309Y-54410D01*
X68253Y-54353D01*
X69378Y-53397D02*
X69434Y-53341D01*
X69547Y-53285D01*
X69828Y-53285D01*
X69940Y-53341D01*
X69997Y-53397D01*
X70053Y-53510D01*
X70053Y-53622D01*
X69997Y-53791D01*
X69322Y-54466D01*
X70053Y-54466D01*
X71459Y-54466D02*
X71459Y-53285D01*
X71965Y-54466D02*
X71965Y-53847D01*
X71909Y-53735D01*
X71796Y-53678D01*
X71628Y-53678D01*
X71515Y-53735D01*
X71459Y-53791D01*
X72696Y-54466D02*
X72584Y-54410D01*
X72528Y-54353D01*
X72471Y-54241D01*
X72471Y-53903D01*
X72528Y-53791D01*
X72584Y-53735D01*
X72696Y-53678D01*
X72865Y-53678D01*
X72978Y-53735D01*
X73034Y-53791D01*
X73090Y-53903D01*
X73090Y-54241D01*
X73034Y-54353D01*
X72978Y-54410D01*
X72865Y-54466D01*
X72696Y-54466D01*
X73765Y-54466D02*
X73652Y-54410D01*
X73596Y-54297D01*
X73596Y-53285D01*
X74665Y-54410D02*
X74552Y-54466D01*
X74327Y-54466D01*
X74215Y-54410D01*
X74159Y-54297D01*
X74159Y-53847D01*
X74215Y-53735D01*
X74327Y-53678D01*
X74552Y-53678D01*
X74665Y-53735D01*
X74721Y-53847D01*
X74721Y-53960D01*
X74159Y-54072D01*
X75171Y-54410D02*
X75284Y-54466D01*
X75508Y-54466D01*
X75621Y-54410D01*
X75677Y-54297D01*
X75677Y-54241D01*
X75621Y-54128D01*
X75508Y-54072D01*
X75340Y-54072D01*
X75227Y-54016D01*
X75171Y-53903D01*
X75171Y-53847D01*
X75227Y-53735D01*
X75340Y-53678D01*
X75508Y-53678D01*
X75621Y-53735D01*
X76071Y-54916D02*
X76127Y-54859D01*
X76240Y-54691D01*
X76296Y-54578D01*
X76352Y-54410D01*
X76408Y-54128D01*
X76408Y-53903D01*
X76352Y-53622D01*
X76296Y-53453D01*
X76240Y-53341D01*
X76127Y-53172D01*
X76071Y-53116D01*
G54D12*
X49268Y-55747D02*
X49468Y-55547D01*
X49268Y-55347D01*
X49068Y-55547D01*
X49268Y-55747D01*
G54D13*
X51155Y-56025D02*
X50480Y-56025D01*
X50818Y-56025D02*
X50818Y-54844D01*
X50705Y-55012D01*
X50593Y-55125D01*
X50480Y-55181D01*
X51661Y-55912D02*
X51718Y-55969D01*
X51661Y-56025D01*
X51605Y-55969D01*
X51661Y-55912D01*
X51661Y-56025D01*
X52449Y-54844D02*
X52561Y-54844D01*
X52674Y-54900D01*
X52730Y-54956D01*
X52786Y-55069D01*
X52843Y-55294D01*
X52843Y-55575D01*
X52786Y-55800D01*
X52730Y-55912D01*
X52674Y-55969D01*
X52561Y-56025D01*
X52449Y-56025D01*
X52336Y-55969D01*
X52280Y-55912D01*
X52224Y-55800D01*
X52168Y-55575D01*
X52168Y-55294D01*
X52224Y-55069D01*
X52280Y-54956D01*
X52336Y-54900D01*
X52449Y-54844D01*
X53293Y-54956D02*
X53349Y-54900D01*
X53461Y-54844D01*
X53742Y-54844D01*
X53855Y-54900D01*
X53911Y-54956D01*
X53967Y-55069D01*
X53967Y-55181D01*
X53911Y-55350D01*
X53236Y-56025D01*
X53967Y-56025D01*
X54474Y-56025D02*
X54474Y-55237D01*
X54474Y-55350D02*
X54530Y-55294D01*
X54642Y-55237D01*
X54811Y-55237D01*
X54924Y-55294D01*
X54980Y-55406D01*
X54980Y-56025D01*
X54980Y-55406D02*
X55036Y-55294D01*
X55149Y-55237D01*
X55317Y-55237D01*
X55430Y-55294D01*
X55486Y-55406D01*
X55486Y-56025D01*
X56048Y-56025D02*
X56048Y-55237D01*
X56048Y-55350D02*
X56105Y-55294D01*
X56217Y-55237D01*
X56386Y-55237D01*
X56498Y-55294D01*
X56555Y-55406D01*
X56555Y-56025D01*
X56555Y-55406D02*
X56611Y-55294D01*
X56723Y-55237D01*
X56892Y-55237D01*
X57005Y-55294D01*
X57061Y-55406D01*
X57061Y-56025D01*
X59367Y-54787D02*
X58354Y-56306D01*
X60885Y-54844D02*
X60998Y-54844D01*
X61110Y-54900D01*
X61167Y-54956D01*
X61223Y-55069D01*
X61279Y-55294D01*
X61279Y-55575D01*
X61223Y-55800D01*
X61167Y-55912D01*
X61110Y-55969D01*
X60998Y-56025D01*
X60885Y-56025D01*
X60773Y-55969D01*
X60717Y-55912D01*
X60660Y-55800D01*
X60604Y-55575D01*
X60604Y-55294D01*
X60660Y-55069D01*
X60717Y-54956D01*
X60773Y-54900D01*
X60885Y-54844D01*
X61785Y-55912D02*
X61841Y-55969D01*
X61785Y-56025D01*
X61729Y-55969D01*
X61785Y-55912D01*
X61785Y-56025D01*
X62573Y-54844D02*
X62685Y-54844D01*
X62798Y-54900D01*
X62854Y-54956D01*
X62910Y-55069D01*
X62966Y-55294D01*
X62966Y-55575D01*
X62910Y-55800D01*
X62854Y-55912D01*
X62798Y-55969D01*
X62685Y-56025D01*
X62573Y-56025D01*
X62460Y-55969D01*
X62404Y-55912D01*
X62348Y-55800D01*
X62291Y-55575D01*
X62291Y-55294D01*
X62348Y-55069D01*
X62404Y-54956D01*
X62460Y-54900D01*
X62573Y-54844D01*
X63979Y-55237D02*
X63979Y-56025D01*
X63697Y-54787D02*
X63416Y-55631D01*
X64147Y-55631D01*
X64822Y-54844D02*
X64935Y-54844D01*
X65047Y-54900D01*
X65104Y-54956D01*
X65160Y-55069D01*
X65216Y-55294D01*
X65216Y-55575D01*
X65160Y-55800D01*
X65104Y-55912D01*
X65047Y-55969D01*
X64935Y-56025D01*
X64822Y-56025D01*
X64710Y-55969D01*
X64654Y-55912D01*
X64597Y-55800D01*
X64541Y-55575D01*
X64541Y-55294D01*
X64597Y-55069D01*
X64654Y-54956D01*
X64710Y-54900D01*
X64822Y-54844D01*
X65666Y-54844D02*
X65666Y-55069D01*
X66116Y-54844D02*
X66116Y-55069D01*
X67859Y-56475D02*
X67803Y-56419D01*
X67691Y-56250D01*
X67634Y-56137D01*
X67578Y-55969D01*
X67522Y-55687D01*
X67522Y-55462D01*
X67578Y-55181D01*
X67634Y-55012D01*
X67691Y-54900D01*
X67803Y-54731D01*
X67859Y-54675D01*
X68197Y-54844D02*
X68928Y-54844D01*
X68534Y-55294D01*
X68703Y-55294D01*
X68816Y-55350D01*
X68872Y-55406D01*
X68928Y-55519D01*
X68928Y-55800D01*
X68872Y-55912D01*
X68816Y-55969D01*
X68703Y-56025D01*
X68366Y-56025D01*
X68253Y-55969D01*
X68197Y-55912D01*
X69659Y-54844D02*
X69772Y-54844D01*
X69884Y-54900D01*
X69940Y-54956D01*
X69997Y-55069D01*
X70053Y-55294D01*
X70053Y-55575D01*
X69997Y-55800D01*
X69940Y-55912D01*
X69884Y-55969D01*
X69772Y-56025D01*
X69659Y-56025D01*
X69547Y-55969D01*
X69491Y-55912D01*
X69434Y-55800D01*
X69378Y-55575D01*
X69378Y-55294D01*
X69434Y-55069D01*
X69491Y-54956D01*
X69547Y-54900D01*
X69659Y-54844D01*
X71459Y-56025D02*
X71459Y-54844D01*
X71965Y-56025D02*
X71965Y-55406D01*
X71909Y-55294D01*
X71796Y-55237D01*
X71628Y-55237D01*
X71515Y-55294D01*
X71459Y-55350D01*
X72696Y-56025D02*
X72584Y-55969D01*
X72528Y-55912D01*
X72471Y-55800D01*
X72471Y-55462D01*
X72528Y-55350D01*
X72584Y-55294D01*
X72696Y-55237D01*
X72865Y-55237D01*
X72978Y-55294D01*
X73034Y-55350D01*
X73090Y-55462D01*
X73090Y-55800D01*
X73034Y-55912D01*
X72978Y-55969D01*
X72865Y-56025D01*
X72696Y-56025D01*
X73765Y-56025D02*
X73652Y-55969D01*
X73596Y-55856D01*
X73596Y-54844D01*
X74665Y-55969D02*
X74552Y-56025D01*
X74327Y-56025D01*
X74215Y-55969D01*
X74159Y-55856D01*
X74159Y-55406D01*
X74215Y-55294D01*
X74327Y-55237D01*
X74552Y-55237D01*
X74665Y-55294D01*
X74721Y-55406D01*
X74721Y-55519D01*
X74159Y-55631D01*
X75171Y-55969D02*
X75284Y-56025D01*
X75508Y-56025D01*
X75621Y-55969D01*
X75677Y-55856D01*
X75677Y-55800D01*
X75621Y-55687D01*
X75508Y-55631D01*
X75340Y-55631D01*
X75227Y-55575D01*
X75171Y-55462D01*
X75171Y-55406D01*
X75227Y-55294D01*
X75340Y-55237D01*
X75508Y-55237D01*
X75621Y-55294D01*
X76071Y-56475D02*
X76127Y-56419D01*
X76240Y-56250D01*
X76296Y-56137D01*
X76352Y-55969D01*
X76408Y-55687D01*
X76408Y-55462D01*
X76352Y-55181D01*
X76296Y-55012D01*
X76240Y-54900D01*
X76127Y-54731D01*
X76071Y-54675D01*
M02*
